<?xml version="1.0" encoding="UTF-8" standalone="no"?>
<!-- Created with Inkscape (http://www.inkscape.org/) -->

<svg
   width="210mm"
   height="297mm"
   viewBox="0 0 210 297"
   version="1.1"
   id="svg5"
   inkscape:version="1.1.2 (b8e25be833, 2022-02-05)"
   sodipodi:docname="星形多边形.svg"
   xmlns:inkscape="http://www.inkscape.org/namespaces/inkscape"
   xmlns:sodipodi="http://sodipodi.sourceforge.net/DTD/sodipodi-0.dtd"
   xmlns="http://www.w3.org/2000/svg"
   xmlns:svg="http://www.w3.org/2000/svg">
  <sodipodi:namedview
     id="namedview7"
     pagecolor="#ffffff"
     bordercolor="#666666"
     borderopacity="1.0"
     inkscape:pageshadow="2"
     inkscape:pageopacity="0.0"
     inkscape:pagecheckerboard="0"
     inkscape:document-units="mm"
     showgrid="false"
     inkscape:zoom="0.72337262"
     inkscape:cx="1031.9716"
     inkscape:cy="14.515341"
     inkscape:window-width="1920"
     inkscape:window-height="1001"
     inkscape:window-x="-9"
     inkscape:window-y="-9"
     inkscape:window-maximized="1"
     inkscape:current-layer="layer1" />
  <defs
     id="defs2" />
  <g
     inkscape:label="图层 1"
     inkscape:groupmode="layer"
     id="layer1">
    <path
       sodipodi:type="star"
       style="fill:#ff5555;fill-opacity:0.502041;stroke-width:3.77953"
       id="path846"
       inkscape:flatsided="false"
       sodipodi:sides="5"
       sodipodi:cx="272.33545"
       sodipodi:cy="391.22299"
       sodipodi:r1="339.15311"
       sodipodi:r2="155.68469"
       sodipodi:arg1="2.0166418"
       sodipodi:arg2="1.3780388"
       inkscape:rounded="0.78858369"
       inkscape:randomized="0"
       d="M 126.08556,697.22266 C 1.1048163,832.32936 389.61274,705.96852 302.15935,544.02436 146.33982,255.48134 233.87539,484.08665 -63.881234,346.69018 -230.99651,269.57669 9.2353428,600.02204 136.22881,466.80543 362.49864,229.44755 172.13205,383.34176 210.79201,57.700527 232.48982,-125.06492 -7.5466476,205.52237 158.39301,285.13414 454.055,426.98192 248.8664,293.48846 570.51619,229.62759 751.04146,193.78581 362.45891,67.654653 338.02179,250.07404 c -43.54068,325.02463 20.01239,88.62692 180.14294,374.79997 89.87293,160.61401 89.75218,-247.92663 -91.29045,-214.79702 -322.5716,59.02849 -78.10505,46.42014 -300.78872,287.14567 z"
       transform="matrix(0.22054573,0,0,0.20175029,5.2778087,25.085229)"
       inkscape:transform-center-x="-2.0130331"
       inkscape:transform-center-y="-3.9254067" />
    <path
       sodipodi:type="star"
       style="fill:#ff5555;fill-opacity:0.502041;stroke-width:3.77953"
       id="path1245"
       inkscape:flatsided="false"
       sodipodi:sides="5"
       sodipodi:cx="920.68732"
       sodipodi:cy="183.86098"
       sodipodi:r1="270.30692"
       sodipodi:r2="108.71365"
       sodipodi:arg1="0.98563059"
       sodipodi:arg2="-0.15739902"
       inkscape:rounded="0"
       inkscape:randomized="0"
       d="M 1069.988,409.19438 1028.0571,166.82012 752.51896,395.48619 970.07322,280.70978 667.4529,89.319153 843.83971,260.75769 932.3482,-86.194299 823.80698,134.53695 1181.1286,111.49946 937.65958,76.480343 Z"
       transform="matrix(0.26458333,0,0,0.26458333,275.16678,0)"
       inkscape:transform-center-x="1.3376299"
       inkscape:transform-center-y="-2.6011191" />
    <path
       sodipodi:type="star"
       style="fill:#ff5555;fill-opacity:0.502041;stroke-width:3.77953"
       id="path1247"
       inkscape:flatsided="false"
       sodipodi:sides="5"
       sodipodi:cx="920.68732"
       sodipodi:cy="183.86098"
       sodipodi:r1="202.23439"
       sodipodi:r2="131.526"
       sodipodi:arg1="1.0245152"
       sodipodi:arg2="1.6528337"
       inkscape:rounded="0"
       inkscape:randomized="-0.21912598"
       d="M 1066.2328,321.33289 876.45402,339.0219 763.38732,380.66672 833.93085,206.6141 710.80251,64.340996 854.57853,35.85505 946.33154,-32.413891 976.2255,125.6213 l 112.7147,14.74017 -30.4187,87.68072 z"
       transform="matrix(0.26458333,0,0,0.26458333,137.58336,0)"
       inkscape:transform-center-x="1.3376299"
       inkscape:transform-center-y="-2.6011191" />
    <path
       sodipodi:type="star"
       style="fill:#5dd400;fill-opacity:0.502041;stroke-width:3.77953"
       id="path2003"
       inkscape:flatsided="false"
       sodipodi:sides="15"
       sodipodi:cx="1021.6035"
       sodipodi:cy="-132.71169"
       sodipodi:r1="155.66736"
       sodipodi:r2="110.47529"
       sodipodi:arg1="1.2265776"
       sodipodi:arg2="1.4360171"
       inkscape:rounded="0.72054262"
       inkscape:randomized="0"
       d="m 1074.1352,13.824131 c -35.852,12.852618 0.054,-42.180126 -37.6869,-37.062426 -37.74084,5.117701 11.5239,48.601198 -26.4562,45.760312 -37.98006,-2.840885 17.2054,-38.511575 -19.35408,-49.186886 -36.55949,-10.675311 -9.24021,49.08663 -42.78126,31.0434554 -33.54105,-18.0431734 31.38195,-28.1840234 2.32524,-52.8064874 -29.05671,-24.622465 -28.40668,41.0845376 -51.70913,10.958903 -23.30246,-30.125634 40.13231,-12.983198 23.60254,-47.295367 -16.52977,-34.312175 -42.66138,25.978556 -51.69603,-11.020543 -9.03465,-36.999102 41.94343,4.46254 40.79875,-33.606452 -1.14467,-38.06899 -49.53953,6.38065 -42.74421,-31.09443 6.79532,-37.47509 36.50215,21.13666 50.94049,-14.10667 14.43834,-35.24334 -47.85186,-14.32054 -26.40154,-45.79182 21.45033,-31.47129 24.74933,34.15607 52.27416,7.83228 27.52483,-26.32379 -37.89017,-32.54557 -5.49379,-52.57138 32.39637,-20.02582 8.7171,41.26957 44.56914,28.41695 35.85202,-12.85261 -21.37692,-45.14317 16.36392,-50.26087 37.7407,-5.1177 -8.82242,41.2472 29.1577,44.08809 37.9801,2.84088 -1.1674,-49.93512 35.3921,-39.25981 36.5594,10.67531 -24.8364,34.09281 8.7046,52.13599 33.5411,18.04317 19.244,-46.09283 48.3007,-21.47036 29.0567,24.62246 -36.556,21.04346 -13.2535,51.16909 23.3024,30.12564 36.3279,-34.28066 52.8576,0.0315 16.5298,34.31217 -41.9547,4.35551 -32.92,41.35461 9.0347,36.99909 47.1304,-16.54107 48.2751,21.52792 1.1446,38.068991 -40.0991,-13.08555 -46.8944,24.38953 -6.7954,37.475084 49.7836,4.05864 35.3452,39.301972 -14.4383,35.243335 -31.3099,-28.264002 -52.7602,3.207281 -21.4504,31.471285 43.8287,23.956559 16.3039,50.280348 -27.5248,26.3237871 -17.107,-38.55535 -49.5034,-18.529535 -32.3964,20.025815 30.2956,39.71217614 -5.5565,52.564795 z"
       transform="matrix(0.26458333,0,0,0.26458333,-169.34852,-41.697044)"
       inkscape:transform-center-x="3.405345e-06" />
  </g>
</svg>
