<?xml version="1.0" encoding="UTF-8" standalone="no"?>
<!-- Created with Inkscape (http://www.inkscape.org/) -->

<svg
   width="210mm"
   height="297mm"
   viewBox="0 0 210 297"
   version="1.1"
   id="svg5"
   inkscape:version="1.1.2 (b8e25be833, 2022-02-05)"
   sodipodi:docname="椭圆.svg"
   xmlns:inkscape="http://www.inkscape.org/namespaces/inkscape"
   xmlns:sodipodi="http://sodipodi.sourceforge.net/DTD/sodipodi-0.dtd"
   xmlns="http://www.w3.org/2000/svg"
   xmlns:svg="http://www.w3.org/2000/svg">
  <sodipodi:namedview
     id="namedview7"
     pagecolor="#ffffff"
     bordercolor="#666666"
     borderopacity="1.0"
     inkscape:pageshadow="2"
     inkscape:pageopacity="0.0"
     inkscape:pagecheckerboard="0"
     inkscape:document-units="mm"
     showgrid="false"
     inkscape:zoom="2.0460067"
     inkscape:cx="959.18551"
     inkscape:cy="488.02381"
     inkscape:window-width="1920"
     inkscape:window-height="1001"
     inkscape:window-x="-9"
     inkscape:window-y="-9"
     inkscape:window-maximized="1"
     inkscape:current-layer="layer1" />
  <defs
     id="defs2" />
  <g
     inkscape:label="图层 1"
     inkscape:groupmode="layer"
     id="layer1">
    <path
       style="fill:#ff0000;fill-opacity:0.502041;stroke:#a1ffff;stroke-width:1;stroke-opacity:1"
       id="path1688"
       sodipodi:type="arc"
       sodipodi:cx="89.350983"
       sodipodi:cy="56.335182"
       sodipodi:rx="55.334969"
       sodipodi:ry="36.759239"
       sodipodi:start="0.81327548"
       sodipodi:end="4.4083141"
       sodipodi:arc-type="arc"
       d="M 127.37288,83.042303 A 55.334969,36.759239 0 0 1 65.740323,89.580231 55.334969,36.759239 0 0 1 34.145314,53.823718 55.334969,36.759239 0 0 1 72.783105,21.262297"
       sodipodi:open="true" />
    <path
       style="fill:#ffffff;fill-opacity:0.502041;stroke:#a1ffff;stroke-width:1;stroke-opacity:1"
       id="path1986"
       sodipodi:type="arc"
       sodipodi:cx="89.350983"
       sodipodi:cy="135.71017"
       sodipodi:rx="55.334969"
       sodipodi:ry="36.759239"
       sodipodi:start="0.81327548"
       sodipodi:end="4.4083141"
       sodipodi:arc-type="arc"
       d="M 127.37288,162.4173 A 55.334969,36.759239 0 0 1 65.740323,168.95522 55.334969,36.759239 0 0 1 34.145314,133.19871 55.334969,36.759239 0 0 1 72.783105,100.63729"
       sodipodi:open="true" />
    <circle
       style="fill:#2b0000;fill-opacity:0.502041;stroke:none;stroke-width:3.77953;stroke-opacity:1"
       id="path2231"
       sodipodi:type="arc"
       sodipodi:cx="260.24075"
       sodipodi:cy="114.66687"
       sodipodi:rx="33.467365"
       sodipodi:ry="33.467365"
       sodipodi:start="0"
       sodipodi:end="6.0213859"
       sodipodi:arc-type="slice"
       d="m 293.70812,114.66687 a 33.467365,33.467365 0 0 1 -31.2785,33.39571 33.467365,33.467365 0 0 1 -35.36991,-29.02734 33.467365,33.467365 0 0 1 26.65188,-37.192669 33.467365,33.467365 0 0 1 38.85616,24.162309 l -32.327,8.66199 z" />
    <circle
       style="fill:#550000;fill-opacity:0.502041;stroke:none;stroke-width:3.77953;stroke-opacity:1"
       id="circle2805"
       sodipodi:type="arc"
       sodipodi:cx="260.24075"
       sodipodi:cy="114.66687"
       sodipodi:rx="33.467365"
       sodipodi:ry="33.467365"
       sodipodi:start="0"
       sodipodi:end="5.7595865"
       sodipodi:arc-type="slice"
       d="m 293.70812,114.66687 a 33.467365,33.467365 0 0 1 -29.099,33.18105 33.467365,33.467365 0 0 1 -36.69536,-24.51906 33.467365,33.467365 0 0 1 19.51959,-39.581803 33.467365,33.467365 0 0 1 41.79099,14.18613 l -28.98359,16.733683 z" />
    <circle
       style="fill:#800000;fill-opacity:0.502041;stroke:none;stroke-width:3.77953;stroke-opacity:1"
       id="circle2807"
       sodipodi:type="arc"
       sodipodi:cx="260.24075"
       sodipodi:cy="114.66687"
       sodipodi:rx="33.467365"
       sodipodi:ry="33.467365"
       sodipodi:start="0"
       sodipodi:end="5.4977871"
       sodipodi:arc-type="slice"
       d="m 293.70812,114.66687 a 33.467365,33.467365 0 0 1 -26.93821,32.8243 33.467365,33.467365 0 0 1 -37.44897,-20.01689 33.467365,33.467365 0 0 1 12.32634,-40.634506 33.467365,33.467365 0 0 1 42.25847,4.162094 l -23.665,23.665002 z" />
    <circle
       style="fill:#d40000;fill-opacity:0.502041;stroke:none;stroke-width:3.77953;stroke-opacity:1"
       id="circle2809"
       sodipodi:type="arc"
       sodipodi:cx="260.24075"
       sodipodi:cy="114.66687"
       sodipodi:rx="33.467365"
       sodipodi:ry="33.467365"
       sodipodi:start="0"
       sodipodi:end="5.2359878"
       sodipodi:arc-type="slice"
       d="m 293.70812,114.66687 a 33.467365,33.467365 0 0 1 -24.80538,32.32699 33.467365,33.467365 0 0 1 -37.64558,-15.59331 33.467365,33.467365 0 0 1 5.31859,-40.398682 33.467365,33.467365 0 0 1 40.39869,-5.318586 l -16.73369,28.983588 z" />
    <circle
       style="fill:#ff2a2a;fill-opacity:0.502041;stroke:none;stroke-width:3.77953;stroke-opacity:1"
       id="circle2925"
       sodipodi:type="arc"
       sodipodi:cx="260.24075"
       sodipodi:cy="114.66687"
       sodipodi:rx="33.467365"
       sodipodi:ry="33.467365"
       sodipodi:start="0"
       sodipodi:end="4.9741884"
       sodipodi:arc-type="slice"
       d="m 293.70812,114.66687 a 33.467365,33.467365 0 0 1 -22.70964,31.69126 33.467365,33.467365 0 0 1 -37.30917,-11.31762 33.467365,33.467365 0 0 1 -1.27565,-38.967112 33.467365,33.467365 0 0 1 36.48909,-13.73352 l -8.662,32.326992 z" />
    <circle
       style="fill:#ff5555;fill-opacity:0.502041;stroke:none;stroke-width:3.77953;stroke-opacity:1"
       id="circle2946"
       sodipodi:type="arc"
       sodipodi:cx="260.24075"
       sodipodi:cy="114.66687"
       sodipodi:rx="33.467365"
       sodipodi:ry="33.467365"
       sodipodi:start="0"
       sodipodi:end="4.712389"
       sodipodi:arc-type="slice"
       d="m 293.70812,114.66687 a 33.467365,33.467365 0 0 1 -20.65996,30.91981 33.467365,33.467365 0 0 1 -36.47241,-7.25481 33.467365,33.467365 0 0 1 -7.25481,-36.47241 33.467365,33.467365 0 0 1 30.91981,-20.659955 v 33.467365 z" />
  </g>
</svg>
