<?xml version="1.0" encoding="UTF-8" standalone="no"?>
<!-- Created with Inkscape (http://www.inkscape.org/) -->

<svg
   width="210mm"
   height="297mm"
   viewBox="0 0 210 297"
   version="1.1"
   id="svg5"
   inkscape:version="1.1.2 (b8e25be833, 2022-02-05)"
   sodipodi:docname="螺旋.svg"
   xmlns:inkscape="http://www.inkscape.org/namespaces/inkscape"
   xmlns:sodipodi="http://sodipodi.sourceforge.net/DTD/sodipodi-0.dtd"
   xmlns="http://www.w3.org/2000/svg"
   xmlns:svg="http://www.w3.org/2000/svg">
  <sodipodi:namedview
     id="namedview7"
     pagecolor="#ffffff"
     bordercolor="#666666"
     borderopacity="1.0"
     inkscape:pageshadow="2"
     inkscape:pageopacity="0.0"
     inkscape:pagecheckerboard="0"
     inkscape:document-units="mm"
     showgrid="false"
     inkscape:zoom="0.72337262"
     inkscape:cx="709.86928"
     inkscape:cy="313.11664"
     inkscape:window-width="1920"
     inkscape:window-height="1001"
     inkscape:window-x="-9"
     inkscape:window-y="-9"
     inkscape:window-maximized="1"
     inkscape:current-layer="layer1" />
  <defs
     id="defs2">
    <marker
       style="overflow:visible;"
       id="Arrow1Lend"
       refX="0.0"
       refY="0.0"
       orient="auto"
       inkscape:stockid="Arrow1Lend"
       inkscape:isstock="true">
      <path
         transform="scale(0.8) rotate(180) translate(12.5,0)"
         style="fill-rule:evenodd;fill:context-stroke;stroke:context-stroke;stroke-width:1.0pt;"
         d="M 0.0,0.0 L 5.0,-5.0 L -12.5,0.0 L 5.0,5.0 L 0.0,0.0 z "
         id="path2239" />
    </marker>
  </defs>
  <g
     inkscape:label="图层 1"
     inkscape:groupmode="layer"
     id="layer1">
    <path
       sodipodi:type="spiral"
       style="fill:none;fill-rule:evenodd;stroke:#000000;stroke-width:2.50282007;stroke-linejoin:bevel;stroke-miterlimit:4;stroke-dasharray:30.03384081,30.03384081;stroke-dashoffset:0;marker-end:url(#Arrow1Lend);paint-order:markers fill stroke"
       id="path847"
       sodipodi:cx="261.27612"
       sodipodi:cy="367.72195"
       sodipodi:expansion="7.2600002"
       sodipodi:revolution="23.690001"
       sodipodi:radius="224.7963"
       sodipodi:argument="-147.70122"
       sodipodi:t0="0"
       d="m 261.27612,367.72195 c 0,0 0,0 0,0 0,0 0,0 0,0 0,0 0,0 0,0 0,0 0,0 0,0 0,0 0,0 0,0 0,0 0,0 0,0 0,1e-5 0,1e-5 0,1e-5 0,0 0,-1e-5 0,-1e-5 0,-10e-6 1e-5,-10e-6 1e-5,0 10e-6,0 2e-5,2e-5 10e-6,2e-5 -10e-6,3e-5 -4e-5,3e-5 -6e-5,2e-5 -4e-5,-2e-5 -4e-5,-7e-5 -2e-5,-1.1e-4 4e-5,-7e-5 1.3e-4,-7e-5 1.9e-4,-4e-5 1.1e-4,7e-5 1.2e-4,2.2e-4 6e-5,3.3e-4 -1.1e-4,1.8e-4 -3.6e-4,1.9e-4 -5.3e-4,8e-5 -2.8e-4,-1.8e-4 -3e-4,-5.7e-4 -1.3e-4,-8.3e-4 2.9e-4,-4.4e-4 8.9e-4,-4.6e-4 0.001,-1.9e-4 6.4e-4,4.4e-4 6.7e-4,0.001 2.5e-4,0.002 -6.5e-4,9.4e-4 -0.002,9.8e-4 -0.003,3.5e-4 -0.001,-9.6e-4 -0.001,-0.003 -4.6e-4,-0.004 0.001,-0.002 0.004,-0.002 0.006,-6.1e-4 0.003,0.002 0.003,0.006 7.9e-4,0.008 -0.003,0.004 -0.008,0.004 -0.0114,0.001 -0.005,-0.004 -0.005,-0.0109 -0.001,-0.0155 0.005,-0.006 0.0146,-0.006 0.0208,-0.002 0.008,0.007 0.009,0.0195 0.002,0.0275 -0.009,0.0111 -0.0256,0.0111 -0.0362,0.002 -0.0143,-0.0117 -0.0142,-0.0333 -0.003,-0.047 0.0152,-0.0183 0.043,-0.0182 0.0606,-0.004 0.0233,0.0195 0.023,0.055 0.004,0.0774 -0.0248,0.0294 -0.0698,0.029 -0.0981,0.005 -0.0368,-0.0313 -0.0362,-0.088 -0.006,-0.12334 0.0393,-0.0457 0.10998,-0.0449 0.15405,-0.007 0.0565,0.049 0.0553,0.13663 0.008,0.19115 -0.0607,0.0694 -0.16866,0.0677 -0.2357,0.009 -0.0848,-0.0746 -0.0826,-0.20698 -0.01,-0.28895 0.0913,-0.10296 0.2526,-0.10008 0.35227,-0.0111 0.12444,0.11111 0.1207,0.30662 0.0124,0.4272 -0.13449,0.14968 -0.37033,0.14489 -0.51549,0.0137 -0.17922,-0.16199 -0.17315,-0.44515 -0.015,-0.61909 0.19422,-0.21366 0.53266,-0.20604 0.74018,-0.0164 0.25364,0.23183 0.24417,0.63463 0.0177,0.88117 -0.27556,0.29992 -0.753,0.28823 -1.04474,0.0189 -0.3533,-0.32621 -0.33897,-0.88994 -0.0199,-1.23384 0.3847,-0.41469 1.04786,-0.39725 1.45176,-0.0208 0.48506,0.45202 0.46395,1.22937 0.0215,1.7021 -0.52926,0.56548 -1.43738,0.54008 -1.98881,0.0218 -0.65716,-0.61761 -0.62676,-1.67506 -0.0218,-2.31624 0.71839,-0.76137 1.94588,-0.72515 2.68914,-0.0212 0.87951,0.83304 0.83658,2.25366 0.0199,3.1127 -0.96314,1.01316 -2.60255,0.96248 -3.5926,0.018 -1.16394,-1.11038 -1.10436,-2.99705 -0.0151,-4.13498 1.27664,-1.3337 3.44208,-1.26392 4.74657,-0.0112 1.52437,1.46392 1.44296,3.94298 0.006,5.43462 -1.67444,1.73811 -4.50552,1.64345 -6.20702,-6.9e-4 -1.9772,-1.91055 -1.8675,-5.13596 0.009,-7.07229 2.17483,-2.24413 5.84105,-2.1174 8.03964,0.0193 2.54156,2.47004 2.3956,6.62808 -0.0318,9.119 -2.79917,2.87238 -7.50493,2.70476 -10.32108,-0.0468 -3.23969,-3.16543 -3.04772,-8.48003 0.0647,-11.6574 3.57228,-3.64679 9.5625,-3.42751 13.14034,0.0859 4.09725,4.02345 3.84741,10.76208 -0.11069,14.78317 -4.52291,4.5949 -12.08926,4.31093 -16.60017,-0.13958 -5.1438,-5.07494 -4.8218,-13.55525 0.17307,-18.60656 5.6841,-5.74834 15.17204,-5.38403 20.81868,0.21165 6.41317,6.3553 6.00188,16.95248 -0.25593,23.25399 -7.09374,7.14327 -18.91025,6.67989 -25.93108,-0.30652 -7.94393,-7.905 -7.42294,-21.05998 0.36408,-28.86983 8.79503,-8.82081 23.41723,-8.23617 32.0914,0.42935 9.77991,9.77015 9.12507,25.99859 -0.50311,35.61833 -10.83708,10.82759 -28.82169,10.09545 -39.47456,-0.58621 -11.97065,-12.00301 -11.15352,-31.90529 0.67956,-43.68557 13.27551,-13.21629 35.26928,-12.30583 48.27838,0.78412 14.57211,14.66268 13.55934,38.9348 -0.90095,53.28167 -16.17306,16.04621 -42.92424,14.92141 -58.72586,-1.03117 -17.64712,-17.81571 -16.39982,-47.26131 1.17599,-64.64311 19.60025,-19.38389 51.97113,-18.00283 71.06753,1.33668 21.26608,21.53682 19.73912,57.08025 -1.51463,78.03513 -23.63617,23.30379 -62.61675,21.61789 -85.584,-1.71129 -25.50767,-25.90964 -23.64885,-68.61027 1.92821,-93.75435 28.36921,-27.88897 75.09212,-25.8422 102.58865,2.16706 30.45953,31.0275 28.20871,82.09528 -2.42961,112.13163 -33.89786,33.23184 -89.65457,30.75974 -122.43047,-2.71773 -36.21904,-36.9943 -33.50723,-97.80661 3.0334,-133.53486 40.33162,-39.43494 106.59,-36.46372 145.49709,3.37876 42.89409,43.92534 39.64242,116.04532 -3.75602,158.37217 -47.79184,46.61177 -126.21524,43.05719 -172.21795,-4.16757 -50.60401,-51.94829 -46.72259,-137.14462 4.6159,-187.09518 56.41278,-54.88766 148.88055,-50.65389 203.0677,5.10368 59.48038,61.20422 54.86711,161.47247 -5.6337,220.20245 -66.34253,64.40071 -174.97224,59.37905 -238.56972,-6.20892 -69.668045,-71.84855 -64.2073,-189.43424 6.83246,-258.24313 77.74416,-75.30274 204.91547,-69.37029 279.29989,7.50761 81.32608,84.05225 74.8873,221.4756 -8.23783,301.82081 -15.86721,15.33658 -34.0231,28.27557 -53.67564,38.31003"
       transform="matrix(-0.15458448,-0.40935664,0.28899356,0.04870623,302.91622,120.11383)"
       inkscape:transform-center-x="8.5945193"
       inkscape:transform-center-y="23.673145" />
    <path
       sodipodi:type="spiral"
       style="fill:none;fill-rule:evenodd;stroke:#000000"
       id="path1279"
       sodipodi:cx="951.1004"
       sodipodi:cy="320.71991"
       sodipodi:expansion="1"
       sodipodi:revolution="3.9178352"
       sodipodi:radius="199.45076"
       sodipodi:argument="-22.26029"
       sodipodi:t0="0.48951399"
       d="m 882.0628,389.75755 c -43.76556,-37.05824 -45.77529,-104.47104 -8.99946,-147.07466 41.98972,-48.64373 117.54655,-50.65586 165.07346,-8.99946 53.5267,46.91503 55.5406,130.62595 8.9995,183.07234 -51.83593,58.41309 -143.70824,60.42826 -201.07117,8.99947 -63.30214,-56.7536 -65.31832,-156.79278 -8.99948,-219.07002 61.66879,-68.19321 169.87905,-70.21018 237.06885,-8.99948 73.0859,66.58205 75.1035,182.96668 8.9995,255.0677 -71.4938,77.97981 -196.05546,79.99792 -273.06654,8.99949"
       transform="matrix(0.27041523,0,0,0.27041523,-143.62845,114.55116)" />
    <circle
       style="fill:#ff0000;fill-opacity:0.502041;stroke-width:1"
       id="path1875"
       cx="392.20709"
       cy="211.77708"
       r="39.502464" />
  </g>
</svg>
