<?xml version="1.0" encoding="UTF-8" standalone="no"?>
<!-- Created with Inkscape (http://www.inkscape.org/) -->

<svg
   width="210mm"
   height="297mm"
   viewBox="0 0 210 297"
   version="1.1"
   id="svg5"
   inkscape:version="1.1.2 (b8e25be833, 2022-02-05)"
   sodipodi:docname="路径创建与编辑.svg"
   xmlns:inkscape="http://www.inkscape.org/namespaces/inkscape"
   xmlns:sodipodi="http://sodipodi.sourceforge.net/DTD/sodipodi-0.dtd"
   xmlns="http://www.w3.org/2000/svg"
   xmlns:svg="http://www.w3.org/2000/svg">
  <sodipodi:namedview
     id="namedview7"
     pagecolor="#ffffff"
     bordercolor="#666666"
     borderopacity="1.0"
     inkscape:pageshadow="2"
     inkscape:pageopacity="0.0"
     inkscape:pagecheckerboard="0"
     inkscape:document-units="mm"
     showgrid="false"
     inkscape:zoom="2.3493607"
     inkscape:cx="825.96938"
     inkscape:cy="564.62169"
     inkscape:window-width="1920"
     inkscape:window-height="1001"
     inkscape:window-x="-9"
     inkscape:window-y="-9"
     inkscape:window-maximized="1"
     inkscape:current-layer="layer1" />
  <defs
     id="defs2" />
  <g
     inkscape:label="图层 1"
     inkscape:groupmode="layer"
     id="layer1">
    <g
       id="g8481"
       sodipodi:insensitive="true">
      <path
         style="fill:none;stroke:#000000;stroke-width:0.264583px;stroke-linecap:butt;stroke-linejoin:miter;stroke-opacity:1"
         d="m 45.088467,79.271132 c 138.258643,0 138.258643,0 138.258643,0"
         id="path8093" />
      <path
         style="fill:none;stroke:#000000;stroke-width:0.264583px;stroke-linecap:butt;stroke-linejoin:miter;stroke-opacity:1"
         d="m 45.088467,96.840453 c 138.258643,0 138.258643,0 138.258643,0"
         id="path8093-0" />
      <path
         style="fill:none;stroke:#000000;stroke-width:0.264583px;stroke-linecap:butt;stroke-linejoin:miter;stroke-opacity:1"
         d="m 45.088467,114.40976 c 138.258643,0 138.258643,0 138.258643,0"
         id="path8197" />
      <path
         style="fill:none;stroke:#000000;stroke-width:0.264583px;stroke-linecap:butt;stroke-linejoin:miter;stroke-opacity:1"
         d="m 45.088467,131.9791 c 138.258643,0 138.258643,0 138.258643,0"
         id="path8199" />
      <path
         style="fill:none;stroke:#000000;stroke-width:0.264583px;stroke-linecap:butt;stroke-linejoin:miter;stroke-opacity:1"
         d="m 50.822119,211.79611 c 0,-138.258621 0,-138.258621 0,-138.258621"
         id="path8201" />
      <path
         style="fill:none;stroke:#000000;stroke-width:0.264583px;stroke-linecap:butt;stroke-linejoin:miter;stroke-opacity:1"
         d="m 68.391449,211.79611 c 0,-138.258621 0,-138.258621 0,-138.258621"
         id="path8203" />
      <path
         style="fill:none;stroke:#000000;stroke-width:0.264583px;stroke-linecap:butt;stroke-linejoin:miter;stroke-opacity:1"
         d="m 85.960759,211.79611 c 0,-138.258621 0,-138.258621 0,-138.258621"
         id="path8205" />
      <path
         style="fill:none;stroke:#000000;stroke-width:0.264583px;stroke-linecap:butt;stroke-linejoin:miter;stroke-opacity:1"
         d="m 103.5301,211.79611 c 0,-138.258621 0,-138.258621 0,-138.258621"
         id="path8207" />
      <path
         style="fill:none;stroke:#000000;stroke-width:0.264583px;stroke-linecap:butt;stroke-linejoin:miter;stroke-opacity:1"
         d="m 120.67214,211.79611 c 0,-138.258621 0,-138.258621 0,-138.258621"
         id="path8209" />
      <path
         style="fill:none;stroke:#000000;stroke-width:0.264583px;stroke-linecap:butt;stroke-linejoin:miter;stroke-opacity:1"
         d="m 138.24148,211.79611 c 0,-138.258621 0,-138.258621 0,-138.258621"
         id="path8211" />
      <path
         style="fill:none;stroke:#000000;stroke-width:0.264583px;stroke-linecap:butt;stroke-linejoin:miter;stroke-opacity:1"
         d="m 155.8108,211.79611 c 0,-138.258621 0,-138.258621 0,-138.258621"
         id="path8213" />
      <path
         style="fill:none;stroke:#000000;stroke-width:0.264583px;stroke-linecap:butt;stroke-linejoin:miter;stroke-opacity:1"
         d="m 173.38015,211.79611 c 0,-138.258621 0,-138.258621 0,-138.258621"
         id="path8215" />
      <path
         style="fill:none;stroke:#000000;stroke-width:0.264583px;stroke-linecap:butt;stroke-linejoin:miter;stroke-opacity:1"
         d="m 45.088467,149.12117 c 138.258643,0 138.258643,0 138.258643,0"
         id="path8217" />
      <path
         style="fill:none;stroke:#000000;stroke-width:0.264583px;stroke-linecap:butt;stroke-linejoin:miter;stroke-opacity:1"
         d="m 45.088467,166.6905 c 138.258643,0 138.258643,0 138.258643,0"
         id="path8219" />
      <path
         style="fill:none;stroke:#000000;stroke-width:0.264583px;stroke-linecap:butt;stroke-linejoin:miter;stroke-opacity:1"
         d="m 45.088467,184.25981 c 138.258643,0 138.258643,0 138.258643,0"
         id="path8221" />
      <path
         style="fill:none;stroke:#000000;stroke-width:0.264583px;stroke-linecap:butt;stroke-linejoin:miter;stroke-opacity:1"
         d="m 45.088467,201.82915 c 138.258643,0 138.258643,0 138.258643,0"
         id="path8223" />
    </g>
    <path
       style="fill:none;stroke:#000000;stroke-width:0.569;stroke-linecap:butt;stroke-linejoin:miter;stroke-miterlimit:4;stroke-dasharray:none;stroke-opacity:1"
       d="m 152.64807,126.77914 c 20.37721,44.42233 24.24888,3.46413 38.10538,3.26035 14.11916,-0.20764 27.26054,1.67484 43.33009,7.5355 0,0 3.80658,-10.92216 15.80719,-11.54682 5.45049,-0.28371 4.3418,6.15987 5.34431,13.16359 m -5.18049,12.16288 c 1.6115,11.25819 7.90551,15.12187 24.24547,31.46183 12.20279,12.20279 25.44772,-16.0455 35.48421,-46.59446 9.60675,-29.2409 16.27393,-60.589669 16.27393,-60.589669"
       id="path9845"
       sodipodi:nodetypes="csssccssc" />
    <path
       style="fill:none;stroke:#000000;stroke-width:0.465;stroke-linecap:butt;stroke-linejoin:miter;stroke-opacity:1;stroke-miterlimit:4;stroke-dasharray:none"
       d="m 68.247288,96.627351 c 52.255352,17.793849 63.467252,24.235779 70.049202,52.705829 2.94211,12.72602 -17.79385,34.91198 -17.79385,34.91198"
       id="path13860"
       sodipodi:nodetypes="csc" />
  </g>
</svg>
