<?xml version="1.0" encoding="UTF-8" standalone="no"?>
<!-- Created with Inkscape (http://www.inkscape.org/) -->

<svg
   width="210mm"
   height="297mm"
   viewBox="0 0 210 297"
   version="1.1"
   id="svg5"
   inkscape:version="1.1.2 (b8e25be833, 2022-02-05)"
   sodipodi:docname="路径偏移.svg"
   xmlns:inkscape="http://www.inkscape.org/namespaces/inkscape"
   xmlns:sodipodi="http://sodipodi.sourceforge.net/DTD/sodipodi-0.dtd"
   xmlns="http://www.w3.org/2000/svg"
   xmlns:svg="http://www.w3.org/2000/svg">
  <sodipodi:namedview
     id="namedview7"
     pagecolor="#ffffff"
     bordercolor="#666666"
     borderopacity="1.0"
     inkscape:pageshadow="2"
     inkscape:pageopacity="0.0"
     inkscape:pagecheckerboard="0"
     inkscape:document-units="mm"
     showgrid="false"
     inkscape:zoom="8.1840269"
     inkscape:cx="259.65213"
     inkscape:cy="364.18502"
     inkscape:window-width="1920"
     inkscape:window-height="1001"
     inkscape:window-x="-9"
     inkscape:window-y="-9"
     inkscape:window-maximized="1"
     inkscape:current-layer="text1508" />
  <defs
     id="defs2" />
  <g
     inkscape:label="图层 1"
     inkscape:groupmode="layer"
     id="layer1">
    <g
       aria-label="S"
       id="text1508"
       style="font-size:10.5833px;line-height:1.25;stroke-width:0.264583">
      <path
         id="path15252"
         style="fill:#ff0000"
         transform="matrix(0.50600148,0.08419726,-0.434504,0.76312034,73.803975,14.268419)"
         d="m 81.5,91.613281 c -0.927024,0 -1.749533,0.236145 -2.400391,0.730469 0.0035,-0.003 -0.312084,0.156395 -0.68164,0.292969 -0.370451,0.136904 -0.828713,0.292429 -1.277344,0.458984 -0.448631,0.166556 -0.885087,0.33993 -1.244141,0.535156 -0.179527,0.09761 -0.340828,0.198227 -0.486328,0.333985 -0.1455,0.135757 -0.3125,0.336073 -0.3125,0.644531 0,0.32304 0.211749,0.531274 0.369141,0.640625 0.157392,0.109351 0.315064,0.173693 0.490234,0.234375 0.350341,0.121364 0.766007,0.210904 1.185547,0.294922 0.419541,0.08402 0.841992,0.159605 1.16211,0.232422 0.160058,0.03641 0.29435,0.0744 0.378906,0.103515 0.08455,0.02912 0.119094,0.08723 0.02148,-0.01758 0.0013,0.0013 0.0026,0.0026 0.0039,0.0039 0.43224,0.454754 1.046841,0.736973 1.798828,0.896485 0.0013,6.72e-4 0.0026,0.0013 0.0039,0.002 0.346713,0.07076 0.676718,0.12756 0.986328,0.173828 0.286005,0.04225 0.546261,0.09554 0.78125,0.158203 6.67e-4,10e-7 0.0013,10e-7 0.002,0 0.282556,0.07421 0.448621,0.174667 0.517578,0.242188 0.0013,0.0013 0.0026,0.0026 0.0039,0.0039 0.03225,0.03093 0.08789,0.110645 0.08789,0.361328 0,0.233101 -0.05392,0.33986 -0.292969,0.5 -6.68e-4,6.65e-4 -0.0013,0.0013 -0.002,0.002 -0.185086,0.125206 -0.550567,0.184292 -0.960937,0.214844 -0.02196,-0.04485 -0.03524,-0.06789 -0.06055,-0.123047 -0.05642,-0.122954 -0.117521,-0.261493 -0.203125,-0.402344 -0.0856,-0.14085 -0.174049,-0.357205 -0.544922,-0.429687 -0.20543,-0.04014 -0.387863,0.03548 -0.490234,0.103516 -0.102372,0.06803 -0.15897,0.134253 -0.208985,0.195312 -0.09722,0.118688 -0.162464,0.227356 -0.222656,0.324219 -0.332017,-0.142599 -0.658063,-0.289983 -0.919922,-0.507813 -0.09773,-0.08099 -0.220729,-0.125212 -0.347656,-0.125 l -0.07227,0 c -0.299767,2.57e-4 -0.542712,0.243202 -0.542969,0.542969 l 0,1.28125 c 1.18e-4,0.214469 0.126362,0.40881 0.322266,0.496095 0.486849,0.21597 0.970814,0.38052 1.447266,0.49219 0.491941,0.11438 1.031872,0.16992 1.621093,0.16992 0.561256,0 1.059815,-0.068 1.498047,-0.2168 l 0,0.002 c 0.421543,-0.14182 0.801824,-0.34419 1.13086,-0.607418 6.68e-4,-6.65e-4 0.0013,-0.0013 0.002,-0.002 0.312545,-0.252605 0.562971,-0.569908 0.734375,-0.933593 0.171091,-0.356051 8.251358,4.882991 8.251358,4.498111 0,-0.64599 -8.168408,-6.854163 -8.569718,-7.279361 -0.381716,-0.404438 -0.911222,-0.67084 -1.548828,-0.839844 -0.0013,-6.72e-4 -0.0026,-0.0013 -0.0039,-0.002 -0.304009,-0.07785 -0.661907,-0.148206 -1.078125,-0.21875 -0.399298,-0.06767 -0.705162,-0.125208 -0.910156,-0.169922 -0.355808,-0.08277 -0.546004,-0.205297 -0.591797,-0.255859 -0.05958,-0.06579 -0.107422,-0.161763 -0.107422,-0.388672 0,-0.190078 0.04217,-0.279443 0.259766,-0.429688 0.218716,-0.148817 0.544188,-0.246094 1.017578,-0.246094 -0.08875,0 -0.108251,-0.04347 -0.05273,0.01563 0.05552,0.0591 0.146715,0.187792 0.242188,0.339844 0.09547,0.152052 0.198459,0.327483 0.330078,0.498047 0.131619,0.170564 0.291034,0.359721 0.582031,0.460938 0.0013,6.72e-4 0.0026,0.0013 0.0039,0.002 0.294076,0.09943 0.575311,0.02596 0.769532,-0.0625 0.194221,-0.08846 0.339259,-0.197481 0.460937,-0.285157 0.102229,-0.07366 0.167351,-0.115409 0.203125,-0.136718 0.02589,0.01185 0.05266,0.02165 0.08008,0.0293 l 0.07227,0 c 0.299766,-2.57e-4 0.542711,-0.243202 0.542969,-0.542968 V 92.693359 C 84.730464,92.477251 84.602387,92.2817 84.404297,92.195312 84.019149,92.027525 83.587655,91.89078 83.109375,91.78125 82.611486,91.667234 82.075001,91.613281 81.5,91.613281 Z"
         sodipodi:nodetypes="scsssssssssscccccccscscccsssssccccccccscccccssccscssccsssccssccccccss" />
      <path
         d="m 84.497757,97.79437 c 0,0.299723 -0.07062,0.596 -0.211872,0.888832 -0.137803,0.292832 -0.332451,0.540878 -0.583942,0.744138 -0.275607,0.220485 -0.597722,0.39274 -0.966346,0.516763 -0.365179,0.124027 -0.80615,0.186037 -1.322913,0.186037 -0.554659,0 -1.054196,-0.0517 -1.498612,-0.155031 -0.440971,-0.103353 -0.890554,-0.256659 -1.34875,-0.459919 v -1.281571 h 0.07235 c 0.389294,0.323837 0.838877,0.573606 1.34875,0.749305 0.237072,0.08169 0.513161,-0.792874 0.736827,-0.749165 0.257374,0.0503 0.460152,1.012714 0.699774,1.012714 0.633895,0 1.126542,-0.118855 1.477941,-0.356566 0.354843,-0.237711 0.532265,-0.554658 0.532265,-0.950843 0,-0.341063 -0.0844,-0.592555 -0.253213,-0.754474 -0.165364,-0.161919 -0.418578,-0.287664 -0.759642,-0.377236 -0.258381,-0.0689 -0.539156,-0.125746 -0.842323,-0.170532 -0.299722,-0.04479 -0.618392,-0.101631 -0.956011,-0.170532 -0.682127,-0.144693 -1.188554,-0.391017 -1.519282,-0.73897 -0.327283,-0.351399 -3.462753,-0.556411 -3.462753,-1.11796 0,-0.644231 3.243991,-1.42279 3.788314,-1.832755 0.544323,-0.413411 1.235063,-0.620116 2.072218,-0.620116 0.540878,0 1.03697,0.05168 1.488276,0.155029 0.451307,0.103353 0.850937,0.230821 1.19889,0.382405 v 1.209224 h -0.07235 c -0.292832,-0.248046 -0.861563,0.644262 -1.34043,0.482344 -0.475422,-0.165364 -0.78002,-1.345337 -1.279557,-1.345337 -0.547768,0 -0.988739,0.113688 -1.322912,0.341063 -0.330728,0.227375 -0.496092,0.520208 -0.496092,0.878497 0,0.320393 0.08268,0.571884 0.248046,0.754473 0.165364,0.182589 0.456474,0.322115 0.873329,0.418578 0.220485,0.04823 0.533988,0.1068 0.940508,0.175699 0.40652,0.0689 0.751028,0.139526 1.033525,0.211873 0.571884,0.151583 1.00252,0.380681 1.291907,0.687294 0.289387,0.306613 0.43408,0.735526 0.43408,1.286739 z"
         id="path14876"
         style="fill:#00ffff"
         sodipodi:nodetypes="scccsccccssscscccccscssccccscsscscss" />
      <path
         d="m 67.330679,96.468477 q 0,0.449584 -0.211872,0.888832 -0.206705,0.439248 -0.583942,0.744138 -0.41341,0.330728 -0.966346,0.516763 -0.547769,0.186035 -1.322913,0.186035 -0.831988,0 -1.498612,-0.155029 -0.661456,-0.155029 -1.34875,-0.459919 v -1.281571 h 0.07235 q 0.583941,0.485756 1.34875,0.749305 0.764809,0.263549 1.436601,0.263549 0.950843,0 1.477941,-0.356566 0.532265,-0.356566 0.532265,-0.950843 0,-0.511595 -0.253213,-0.754474 -0.248046,-0.242878 -0.759642,-0.377236 -0.387572,-0.103353 -0.842323,-0.170532 -0.449583,-0.06718 -0.956011,-0.170532 -1.02319,-0.21704 -1.519282,-0.73897 -0.490924,-0.527098 -0.490924,-1.369422 0,-0.966346 0.816485,-1.581293 0.816485,-0.620116 2.072218,-0.620116 0.811317,0 1.488276,0.155029 0.67696,0.155029 1.19889,0.382405 v 1.209224 h -0.07235 q -0.439248,-0.372069 -1.157548,-0.614947 -0.713133,-0.248046 -1.462439,-0.248046 -0.821652,0 -1.322912,0.341063 -0.496092,0.341063 -0.496092,0.878497 0,0.480589 0.248046,0.754473 0.248046,0.273884 0.873329,0.418578 0.330728,0.07235 0.940508,0.175699 0.60978,0.103353 1.033525,0.211873 0.857826,0.227375 1.291907,0.687294 0.43408,0.459919 0.43408,1.286739 z"
         id="path14916" />
    </g>
    <text
       xml:space="preserve"
       style="font-style:normal;font-weight:normal;font-size:10.5833px;line-height:1.25;font-family:sans-serif;fill:#000000;fill-opacity:1;stroke:none;stroke-width:0.264583"
       x="77.381844"
       y="102.43665"
       id="text9860"><tspan
         sodipodi:role="line"
         id="tspan9858"
         style="stroke-width:0.264583"
         x="77.381844"
         y="102.43665" /></text>
  </g>
</svg>
