<?xml version="1.0" encoding="UTF-8" standalone="no"?>
<!-- Created with Inkscape (http://www.inkscape.org/) -->

<svg
   width="210mm"
   height="297mm"
   viewBox="0 0 210 297"
   version="1.1"
   id="svg5"
   inkscape:version="1.1.2 (b8e25be833, 2022-02-05)"
   sodipodi:docname="路径的布尔运算.svg"
   xmlns:inkscape="http://www.inkscape.org/namespaces/inkscape"
   xmlns:sodipodi="http://sodipodi.sourceforge.net/DTD/sodipodi-0.dtd"
   xmlns="http://www.w3.org/2000/svg"
   xmlns:svg="http://www.w3.org/2000/svg">
  <sodipodi:namedview
     id="namedview7"
     pagecolor="#ffffff"
     bordercolor="#666666"
     borderopacity="1.0"
     inkscape:pageshadow="2"
     inkscape:pageopacity="0.0"
     inkscape:pagecheckerboard="0"
     inkscape:document-units="mm"
     showgrid="false"
     inkscape:zoom="0.5"
     inkscape:cx="-1026"
     inkscape:cy="1719"
     inkscape:window-width="1920"
     inkscape:window-height="1001"
     inkscape:window-x="-9"
     inkscape:window-y="-9"
     inkscape:window-maximized="1"
     inkscape:current-layer="layer1" />
  <defs
     id="defs2" />
  <g
     inkscape:label="图层 1"
     inkscape:groupmode="layer"
     id="layer1">
    <path
       id="circle1341"
       style="opacity:1;fill:none;fill-opacity:0.502041;stroke:#ff9955;stroke-width:1.065;stroke-linejoin:bevel;paint-order:markers fill stroke"
       d="m -229.66815,493.30366 a 34.930416,34.930416 0 0 1 28.41559,34.31749 v 0 a 34.930416,34.930416 0 0 1 -34.93041,34.93042 34.930416,34.930416 0 0 1 -34.02862,-27.04451" />
    <path
       id="path1343"
       style="opacity:1;fill:none;fill-opacity:0.502041;stroke:#ff9955;stroke-width:1.065;stroke-linejoin:bevel;paint-order:markers fill stroke"
       d="m -293.49493,498.20081 a 34.930416,34.930416 0 0 1 -0.9018,-7.88591 34.930416,34.930416 0 0 1 34.93042,-34.9304 34.930416,34.930416 0 0 1 6.51482,0.61291" />
    <circle
       style="opacity:1;fill:#0000ff;fill-opacity:0.502041;stroke:#ff9955;stroke-width:1.065;stroke-linejoin:bevel;paint-order:markers fill stroke"
       id="circle1337"
       cx="-342.28076"
       cy="536.35242"
       r="34.930416" />
    <circle
       style="opacity:1;fill:#0000ff;fill-opacity:0.502041;stroke:#ff9955;stroke-width:1.065;stroke-linejoin:bevel;paint-order:markers fill stroke"
       id="circle2073"
       cx="378.72849"
       cy="548.2926"
       r="34.930416" />
    <circle
       style="opacity:0.810811;fill:#0000ff;fill-opacity:0.502041;stroke:#ff9955;stroke-width:1.065;stroke-linejoin:bevel;paint-order:markers fill stroke"
       id="circle1750"
       cx="135.14963"
       cy="392.46521"
       r="34.930416" />
    <path
       sodipodi:type="star"
       style="opacity:0.810811;fill:#ff00ff;fill-opacity:0.502041;stroke:#2a2aff;stroke-width:4.0252;stroke-linejoin:bevel;paint-order:markers fill stroke"
       id="path1610"
       inkscape:flatsided="false"
       sodipodi:sides="15"
       sodipodi:cx="80.179977"
       sodipodi:cy="456.19641"
       sodipodi:r1="189.39064"
       sodipodi:r2="134.40826"
       sodipodi:arg1="0.87325432"
       sodipodi:arg2="1.0826938"
       inkscape:rounded="0.720543"
       inkscape:randomized="0"
       d="m 201.83236,601.34982 c -35.51384,29.76399 -17.69545,-48.17059 -58.62151,-26.44077 -40.92607,21.72983 33.61452,50.62611 -10.9351,63.37208 -44.549617,12.74597 3.42715,-51.20342 -42.79899,-47.99836 -46.226139,3.20505 10.116899,59.92151 -35.765456,53.44557 -45.8823524,-6.47594 23.957161,-45.3827 -19.576128,-61.2566 -43.5332931,-15.8739 -15.130025,58.85593 -54.411642,34.27783 -39.281614,-24.57809 40.344764,-31.7149 7.031622,-63.92302 -33.313144,-32.20811 -37.76083,47.61364 -63.64956,9.18316 -25.888726,-38.43048 49.756391,-12.56332 32.423541,-55.53657 -17.332851,-42.97325 -53.862445,28.13851 -61.881887,-17.49938 -8.01945,-45.63789 50.564681,8.76059 52.20913,-37.54734 1.64445,-46.30792 -60.65075,3.79798 -49.41428,-41.15611 11.236471,-44.95408 42.629885,28.56971 62.967294,-13.06583 20.337411,-41.63554 -56.951996,-21.19926 -28.402493,-57.69658 28.549501,-36.49731 27.323993,43.43887 62.837838,13.67488 35.513848,-29.76399 -43.405722,-42.53095 -2.4796562,-64.26078 40.9260622,-21.72983 7.2935328,50.79704 51.8431482,38.05107 44.549618,-12.74597 -22.354203,-56.50865 23.871936,-59.71371 46.226133,-3.20506 -13.998045,49.37196 31.884306,55.84789 45.882357,6.47594 2.562557,-60.7155 46.095857,-44.8416 43.53329,15.8739 -32.86924,39.41001 6.41238,63.98811 39.28161,24.5781 27.03623,-54.42408 60.34938,-22.21597 33.31314,32.20811 -46.05704,22.63371 -20.16831,61.06419 25.88873,38.43049 46.8351,-38.72224 64.16795,4.25101 17.33285,42.97325 -51.28116,1.94384 -43.26171,47.58173 8.01944,45.63788 58.53574,-16.32498 56.8913,29.98294 -1.64445,46.30793 -47.6383,-19.08213 -58.87477,25.87195 -11.23648,44.95409 60.11503,8.89502 39.77762,50.53056 -20.33741,41.63553 -35.75835,-36.80864 -64.30785,-0.31133 -28.5495,36.49732 51.29989,32.57699 15.78604,62.34098 z"
       transform="matrix(0.26458333,0,0,0.26458333,29.56001,21.328108)"
       inkscape:transform-center-x="-0.26778098"
       inkscape:transform-center-y="-0.13640503" />
    <rect
       style="fill:#ffff00;fill-opacity:0.502041;stroke:#44aa00;stroke-width:1.065;stroke-linejoin:bevel;paint-order:markers fill stroke"
       id="rect846"
       width="70.226601"
       height="95.830048"
       x="23.408867"
       y="51.206894" />
    <circle
       style="fill:#0000ff;fill-opacity:0.502041;stroke:#ff9955;stroke-width:1.065;stroke-linejoin:bevel;paint-order:markers fill stroke;opacity:0.81081081"
       id="path870"
       cx="108.44889"
       cy="123.81096"
       r="34.930416" />
    <path
       id="rect1492"
       style="fill:#ffff00;fill-opacity:0.502041;stroke:#44aa00;stroke-width:4.0252;stroke-linejoin:bevel;paint-order:markers fill stroke"
       d="M 608.47461 193.53711 L 608.47461 555.73047 L 831.375 555.73047 A 132.02047 132.02047 0 0 0 929.88672 599.9668 A 132.02047 132.02047 0 0 0 1061.9062 467.94727 A 132.02047 132.02047 0 0 0 929.88672 335.92578 A 132.02047 132.02047 0 0 0 873.89844 348.43555 L 873.89844 193.53711 L 608.47461 193.53711 z "
       transform="scale(0.26458333)" />
    <rect
       style="fill:#ffff00;fill-opacity:0.502041;stroke:#44aa00;stroke-width:1.065;stroke-linejoin:bevel;paint-order:markers fill stroke"
       id="rect1738"
       width="70.226601"
       height="95.830048"
       x="48.280785"
       y="202.34731" />
    <circle
       style="opacity:0.810811;fill:#0000ff;fill-opacity:0.502041;stroke:#ff9955;stroke-width:1.065;stroke-linejoin:bevel;paint-order:markers fill stroke"
       id="circle1740"
       cx="135.14963"
       cy="276.04877"
       r="34.930416" />
    <rect
       style="fill:#ffff00;fill-opacity:0.502041;stroke:#44aa00;stroke-width:1.065;stroke-linejoin:bevel;paint-order:markers fill stroke"
       id="rect1748"
       width="70.226601"
       height="95.830048"
       x="48.280785"
       y="318.76392" />
    <path
       id="circle1832"
       style="opacity:0.810811;fill:#0000ff;fill-opacity:0.502041;stroke:#ff9955;stroke-width:1.065;stroke-linejoin:bevel;paint-order:markers fill stroke"
       d="m 288.60823,357.53476 a 34.930416,34.930416 0 0 0 -16.64239,4.22042 v 52.83864 h -10.35183 a 34.930416,34.930416 0 0 0 26.99422,12.80179 34.930416,34.930416 0 0 0 34.93018,-34.93016 34.930416,34.930416 0 0 0 -34.93018,-34.93069 z" />
    <path
       id="rect1834"
       style="fill:#ffff00;fill-opacity:0.502041;stroke:#44aa00;stroke-width:1.065;stroke-linejoin:bevel;paint-order:markers fill stroke"
       d="m 201.73912,202.34734 v 95.82982 h 59.87489 a 34.930416,34.930416 0 0 1 -7.93646,-22.12838 34.930416,34.930416 0 0 1 18.28829,-30.71027 v -42.99117 z" />
    <path
       sodipodi:type="star"
       style="opacity:0.810811;fill:#ff00ff;fill-opacity:0.502041;stroke:#2a2aff;stroke-width:4.0252;stroke-linejoin:bevel;paint-order:markers fill stroke"
       id="path1610-2"
       inkscape:flatsided="false"
       sodipodi:sides="15"
       sodipodi:cx="80.179977"
       sodipodi:cy="456.19641"
       sodipodi:r1="189.39064"
       sodipodi:r2="134.40826"
       sodipodi:arg1="0.87325432"
       sodipodi:arg2="1.0826938"
       inkscape:rounded="0.720543"
       inkscape:randomized="0"
       transform="matrix(0.26458333,0,0,0.26458333,64.275221,411.55245)"
       inkscape:transform-center-x="-0.26778098"
       inkscape:transform-center-y="-0.13640503"
       d="m 201.83236,601.34982 c -35.51384,29.76399 -17.69545,-48.17059 -58.62151,-26.44077 -40.92607,21.72983 33.61452,50.62611 -10.9351,63.37208 -44.549617,12.74597 3.42715,-51.20342 -42.79899,-47.99836 -46.226139,3.20505 10.116899,59.92151 -35.765456,53.44557 -45.8823524,-6.47594 23.957161,-45.3827 -19.576128,-61.2566 -43.5332931,-15.8739 -15.130025,58.85593 -54.411642,34.27783 -39.281614,-24.57809 40.344764,-31.7149 7.031622,-63.92302 -33.313144,-32.20811 -37.76083,47.61364 -63.64956,9.18316 -25.888726,-38.43048 49.756391,-12.56332 32.423541,-55.53657 -17.332851,-42.97325 -53.862445,28.13851 -61.881887,-17.49938 -8.01945,-45.63789 50.564681,8.76059 52.20913,-37.54734 1.64445,-46.30792 -60.65075,3.79798 -49.41428,-41.15611 11.236471,-44.95408 42.629885,28.56971 62.967294,-13.06583 20.337411,-41.63554 -56.951996,-21.19926 -28.402493,-57.69658 28.549501,-36.49731 27.323993,43.43887 62.837838,13.67488 35.513848,-29.76399 -43.405722,-42.53095 -2.4796562,-64.26078 40.9260622,-21.72983 7.2935328,50.79704 51.8431482,38.05107 44.549618,-12.74597 -22.354203,-56.50865 23.871936,-59.71371 46.226133,-3.20506 -13.998045,49.37196 31.884306,55.84789 45.882357,6.47594 2.562557,-60.7155 46.095857,-44.8416 43.53329,15.8739 -32.86924,39.41001 6.41238,63.98811 39.28161,24.5781 27.03623,-54.42408 60.34938,-22.21597 33.31314,32.20811 -46.05704,22.63371 -20.16831,61.06419 25.88873,38.43049 46.8351,-38.72224 64.16795,4.25101 17.33285,42.97325 -51.28116,1.94384 -43.26171,47.58173 8.01944,45.63788 58.53574,-16.32498 56.8913,29.98294 -1.64445,46.30793 -47.6383,-19.08213 -58.87477,25.87195 -11.23648,44.95409 60.11503,8.89502 39.77762,50.53056 -20.33741,41.63553 -35.75835,-36.80864 -64.30785,-0.31133 -28.5495,36.49732 51.29989,32.57699 15.78604,62.34098 z" />
    <rect
       style="fill:#ffff00;fill-opacity:0.502041;stroke:#44aa00;stroke-width:1.065;stroke-linejoin:bevel;paint-order:markers fill stroke"
       id="rect846-8"
       width="70.226601"
       height="95.830048"
       x="54.382305"
       y="461.63641" />
    <circle
       style="opacity:1;fill:#0000ff;fill-opacity:0.502041;stroke:#ff9955;stroke-width:1.065;stroke-linejoin:bevel;paint-order:markers fill stroke"
       id="path870-8"
       cx="118.09422"
       cy="549.58173"
       r="34.930416" />
    <rect
       style="fill:#ffff00;fill-opacity:0.502041;stroke:#44aa00;stroke-width:1.065;stroke-linejoin:bevel;paint-order:markers fill stroke"
       id="rect2065"
       width="70.226601"
       height="95.830048"
       x="182.72513"
       y="460.34698" />
    <path
       sodipodi:type="star"
       style="opacity:0.810811;fill:#ff00ff;fill-opacity:0.502041;stroke:#2a2aff;stroke-width:4.0252;stroke-linejoin:bevel;paint-order:markers fill stroke"
       id="path2063"
       inkscape:flatsided="false"
       sodipodi:sides="15"
       sodipodi:cx="80.179977"
       sodipodi:cy="456.19641"
       sodipodi:r1="189.39064"
       sodipodi:r2="134.40826"
       sodipodi:arg1="0.87325432"
       sodipodi:arg2="1.0826938"
       inkscape:rounded="0.720543"
       inkscape:randomized="0"
       transform="matrix(0.26458333,0,0,0.26458333,192.61805,410.26289)"
       inkscape:transform-center-x="-0.26778098"
       inkscape:transform-center-y="-0.13640503"
       d="m 201.83236,601.34982 c -35.51384,29.76399 -17.69545,-48.17059 -58.62151,-26.44077 -40.92607,21.72983 33.61452,50.62611 -10.9351,63.37208 -44.549617,12.74597 3.42715,-51.20342 -42.79899,-47.99836 -46.226139,3.20505 10.116899,59.92151 -35.765456,53.44557 -45.8823524,-6.47594 23.957161,-45.3827 -19.576128,-61.2566 -43.5332931,-15.8739 -15.130025,58.85593 -54.411642,34.27783 -39.281614,-24.57809 40.344764,-31.7149 7.031622,-63.92302 -33.313144,-32.20811 -37.76083,47.61364 -63.64956,9.18316 -25.888726,-38.43048 49.756391,-12.56332 32.423541,-55.53657 -17.332851,-42.97325 -53.862445,28.13851 -61.881887,-17.49938 -8.01945,-45.63789 50.564681,8.76059 52.20913,-37.54734 1.64445,-46.30792 -60.65075,3.79798 -49.41428,-41.15611 11.236471,-44.95408 42.629885,28.56971 62.967294,-13.06583 20.337411,-41.63554 -56.951996,-21.19926 -28.402493,-57.69658 28.549501,-36.49731 27.323993,43.43887 62.837838,13.67488 35.513848,-29.76399 -43.405722,-42.53095 -2.4796562,-64.26078 40.9260622,-21.72983 7.2935328,50.79704 51.8431482,38.05107 44.549618,-12.74597 -22.354203,-56.50865 23.871936,-59.71371 46.226133,-3.20506 -13.998045,49.37196 31.884306,55.84789 45.882357,6.47594 2.562557,-60.7155 46.095857,-44.8416 43.53329,15.8739 -32.86924,39.41001 6.41238,63.98811 39.28161,24.5781 27.03623,-54.42408 60.34938,-22.21597 33.31314,32.20811 -46.05704,22.63371 -20.16831,61.06419 25.88873,38.43049 46.8351,-38.72224 64.16795,4.25101 17.33285,42.97325 -51.28116,1.94384 -43.26171,47.58173 8.01944,45.63788 58.53574,-16.32498 56.8913,29.98294 -1.64445,46.30793 -47.6383,-19.08213 -58.87477,25.87195 -11.23648,44.95409 60.11503,8.89502 39.77762,50.53056 -20.33741,41.63553 -35.75835,-36.80864 -64.30785,-0.31133 -28.5495,36.49732 51.29989,32.57699 15.78604,62.34098 z" />
    <circle
       style="opacity:1;fill:#0000ff;fill-opacity:0.502041;stroke:#ff9955;stroke-width:1.065;stroke-linejoin:bevel;paint-order:markers fill stroke"
       id="circle2067"
       cx="246.43706"
       cy="548.2926"
       r="34.930416" />
    <path
       sodipodi:type="star"
       style="opacity:0.810811;fill:#ff00ff;fill-opacity:0.502041;stroke:#2a2aff;stroke-width:4.0252;stroke-linejoin:bevel;paint-order:markers fill stroke"
       id="path2069"
       inkscape:flatsided="false"
       sodipodi:sides="15"
       sodipodi:cx="80.179977"
       sodipodi:cy="456.19641"
       sodipodi:r1="189.39064"
       sodipodi:r2="134.40826"
       sodipodi:arg1="0.87325432"
       sodipodi:arg2="1.0826938"
       inkscape:rounded="0.720543"
       inkscape:randomized="0"
       transform="matrix(0.26458333,0,0,0.26458333,324.9098,410.26289)"
       inkscape:transform-center-x="-0.26778098"
       inkscape:transform-center-y="-0.13640503"
       d="m 201.83236,601.34982 c -35.51384,29.76399 -17.69545,-48.17059 -58.62151,-26.44077 -40.92607,21.72983 33.61452,50.62611 -10.9351,63.37208 -44.549617,12.74597 3.42715,-51.20342 -42.79899,-47.99836 -46.226139,3.20505 10.116899,59.92151 -35.765456,53.44557 -45.8823524,-6.47594 23.957161,-45.3827 -19.576128,-61.2566 -43.5332931,-15.8739 -15.130025,58.85593 -54.411642,34.27783 -39.281614,-24.57809 40.344764,-31.7149 7.031622,-63.92302 -33.313144,-32.20811 -37.76083,47.61364 -63.64956,9.18316 -25.888726,-38.43048 49.756391,-12.56332 32.423541,-55.53657 -17.332851,-42.97325 -53.862445,28.13851 -61.881887,-17.49938 -8.01945,-45.63789 50.564681,8.76059 52.20913,-37.54734 1.64445,-46.30792 -60.65075,3.79798 -49.41428,-41.15611 11.236471,-44.95408 42.629885,28.56971 62.967294,-13.06583 20.337411,-41.63554 -56.951996,-21.19926 -28.402493,-57.69658 28.549501,-36.49731 27.323993,43.43887 62.837838,13.67488 35.513848,-29.76399 -43.405722,-42.53095 -2.4796562,-64.26078 40.9260622,-21.72983 7.2935328,50.79704 51.8431482,38.05107 44.549618,-12.74597 -22.354203,-56.50865 23.871936,-59.71371 46.226133,-3.20506 -13.998045,49.37196 31.884306,55.84789 45.882357,6.47594 2.562557,-60.7155 46.095857,-44.8416 43.53329,15.8739 -32.86924,39.41001 6.41238,63.98811 39.28161,24.5781 27.03623,-54.42408 60.34938,-22.21597 33.31314,32.20811 -46.05704,22.63371 -20.16831,61.06419 25.88873,38.43049 46.8351,-38.72224 64.16795,4.25101 17.33285,42.97325 -51.28116,1.94384 -43.26171,47.58173 8.01944,45.63788 58.53574,-16.32498 56.8913,29.98294 -1.64445,46.30793 -47.6383,-19.08213 -58.87477,25.87195 -11.23648,44.95409 60.11503,8.89502 39.77762,50.53056 -20.33741,41.63553 -35.75835,-36.80864 -64.30785,-0.31133 -28.5495,36.49732 51.29989,32.57699 15.78604,62.34098 z" />
    <rect
       style="fill:#ffff00;fill-opacity:0.502041;stroke:#44aa00;stroke-width:1.065;stroke-linejoin:bevel;paint-order:markers fill stroke"
       id="rect2071"
       width="70.226601"
       height="95.830048"
       x="315.01675"
       y="460.34698" />
    <text
       xml:space="preserve"
       style="font-style:normal;font-weight:normal;font-size:10.5833px;line-height:1.25;font-family:sans-serif;fill:#000000;fill-opacity:1;stroke:none;stroke-width:0.264583"
       x="55.752422"
       y="446.01938"
       id="text4217"><tspan
         sodipodi:role="line"
         id="tspan4215"
         style="stroke-width:0.264583"
         x="55.752422"
         y="446.01938">病毒最底层</tspan></text>
    <text
       xml:space="preserve"
       style="font-style:normal;font-weight:normal;font-size:10.5833px;line-height:1.25;font-family:sans-serif;fill:#000000;fill-opacity:1;stroke:none;stroke-width:0.264583"
       x="190.45625"
       y="446.76773"
       id="text6201"><tspan
         sodipodi:role="line"
         id="tspan6199"
         style="stroke-width:0.264583"
         x="190.45625"
         y="446.76773">矩形最底层</tspan></text>
    <text
       xml:space="preserve"
       style="font-style:normal;font-weight:normal;font-size:10.5833px;line-height:1.25;font-family:sans-serif;fill:#000000;fill-opacity:1;stroke:none;stroke-width:0.264583"
       x="317.67657"
       y="445.6452"
       id="text8161"><tspan
         sodipodi:role="line"
         id="tspan8159"
         style="stroke-width:0.264583"
         x="317.67657"
         y="445.6452">圆形最底层</tspan></text>
    <path
       id="circle8507"
       style="opacity:1;fill:#0000ff;fill-opacity:0.502041;stroke:#ff9955;stroke-width:1.065;stroke-linejoin:bevel;paint-order:markers fill stroke"
       d="m 377.81415,629.81322 a 34.930416,34.930416 0 0 0 -34.01603,34.89659 34.930416,34.930416 0 0 0 0.90591,7.88426 h 27.81329 c 0.13467,-0.94612 0.62185,-2.02885 1.61745,-3.3016 4.64733,-5.94109 7.97883,-0.38158 11.10837,2.21898 v -8.7204 c -3.13409,-0.52689 -5.89602,-1.67386 -4.61832,-6.78564 0.89532,-3.5819 2.62662,-4.50829 4.61832,-4.3992 v -5.66994 c -1.90439,-0.0998 -3.47588,-1.19571 -4.09328,-4.70927 -0.81474,-4.6365 1.3644,-5.88518 4.09328,-6.31642 v -4.51599 a 34.930416,34.930416 0 0 0 -3.44992,-0.47749 c -1.27244,0.63235 -2.59763,0.78674 -3.97907,-0.10388 z" />
    <path
       id="path8509"
       style="opacity:0.810811;fill:#ff00ff;fill-opacity:0.502041;stroke:#2a2aff;stroke-width:1.065;stroke-linejoin:bevel;paint-order:markers fill stroke"
       inkscape:transform-center-x="-0.26778098"
       inkscape:transform-center-y="-0.13640503"
       d="m 117.17941,631.10254 a 34.930416,34.930416 0 0 0 -34.015496,34.89658 34.930416,34.930416 0 0 0 0.905889,7.88427 h 27.812767 c 0.1348,-0.94597 0.62206,-2.02907 1.61748,-3.30161 4.64755,-5.94135 7.9792,-0.38089 11.10888,2.21951 v -8.7204 c -3.13428,-0.52686 -5.89661,-1.67412 -4.61884,-6.78614 0.89539,-3.58224 2.62691,-4.5085 4.61884,-4.39922 v -5.66995 c -1.90455,-0.0997 -3.47637,-1.19546 -4.09381,-4.70926 -0.81477,-4.63677 1.36469,-5.88523 4.09381,-6.3164 v -4.51654 a 34.930416,34.930416 0 0 0 -3.45043,-0.47747 c -1.27257,0.63249 -2.59749,0.78743 -3.97909,-0.10337 z" />
    <path
       id="rect8515"
       style="fill:#ffff00;fill-opacity:0.502041;stroke:#44aa00;stroke-width:1.065;stroke-linejoin:bevel;paint-order:markers fill stroke"
       d="m 245.52248,629.81322 a 34.930416,34.930416 0 0 0 -34.01601,34.89659 34.930416,34.930416 0 0 0 0.90589,7.88426 h 27.81328 c 0.13469,-0.9461 0.62136,-2.02885 1.61696,-3.3016 4.64757,-5.94141 7.97919,-0.3809 11.10888,2.21948 v -8.7209 c -3.13409,-0.52689 -5.89603,-1.67386 -4.61832,-6.78564 0.89531,-3.5819 2.62661,-4.50829 4.61832,-4.3992 v -5.66994 c -1.90439,-0.0998 -3.4764,-1.19571 -4.09381,-4.70927 -0.81476,-4.63674 1.36473,-5.88523 4.09381,-6.31642 v -4.51599 a 34.930416,34.930416 0 0 0 -3.45043,-0.47749 c -1.27243,0.63235 -2.59714,0.78671 -3.97857,-0.10388 z" />
    <path
       id="circle856"
       style="opacity:1;fill:#0000ff;fill-opacity:0.502041;stroke:#ff9955;stroke-width:4.0252;stroke-linejoin:bevel;paint-order:markers fill stroke"
       d="M 1190.6152 2643.2266 L 1190.6152 2801.9023 C 1197.6883 2812.041 1206.1992 2820.2318 1221.8496 2807.1152 C 1257.3635 2777.3512 1178.445 2764.5853 1219.3711 2742.8555 C 1260.2972 2721.1256 1226.6633 2793.6522 1271.2129 2780.9062 C 1315.7625 2768.1603 1248.8598 2724.3984 1295.0859 2721.1934 C 1341.3121 2717.9883 1281.0884 2770.5651 1326.9707 2777.041 C 1372.8531 2783.517 1329.5331 2716.3253 1373.0664 2732.1992 C 1416.5997 2748.0731 1340.1969 2771.6094 1379.4785 2796.1875 C 1418.7601 2820.7656 1406.515 2741.7626 1439.8281 2773.9707 C 1473.1413 2806.1788 1393.7714 2796.6047 1419.6602 2835.0352 C 1422.4862 2839.2303 1425.249 2841.9814 1427.959 2843.7285 A 132.02047 132.02047 0 0 1 1431.4141 2843.5996 A 132.02047 132.02047 0 0 1 1442.998 2844.1191 C 1447.5194 2841.8719 1451.8588 2838.1135 1456.0371 2834.5391 L 1456.0371 2643.2266 L 1190.6152 2643.2266 z M 1456.0371 2834.5391 L 1456.0371 2845.9238 A 132.02047 132.02047 0 0 1 1485.7441 2855.3086 C 1487.2531 2852.0217 1486.9527 2847.0338 1483.8281 2839.2871 C 1475.4602 2818.5405 1466.2391 2825.8117 1456.0371 2834.5391 z M 1485.7441 2855.3086 C 1482.0965 2863.254 1467.742 2861.1444 1456.0371 2862.9941 L 1456.0371 2904.666 C 1473.5757 2905.5852 1498.623 2884.0182 1497.457 2916.8516 C 1496.3078 2949.2138 1473.5059 2927.0524 1456.0371 2926.0957 L 1456.0371 2968.3711 C 1471.7536 2971.0133 1489.9563 2969.5122 1478.3594 2993.2539 C 1470.5342 3009.2739 1463.4344 3007.4752 1456.0371 3001.3281 L 1456.0371 3005.4199 L 1407.9395 3005.4199 C 1404.5829 3028.9763 1460.6718 3029.4415 1429.8379 3055.2832 C 1394.324 3085.0472 1412.1429 3007.112 1371.2168 3028.8418 C 1332.2913 3049.5094 1397.7417 3076.649 1365.9102 3090.2207 A 132.02047 132.02047 0 0 0 1431.4141 3107.6406 A 132.02047 132.02047 0 0 0 1563.4355 2975.6211 A 132.02047 132.02047 0 0 0 1485.7441 2855.3086 z M 1365.9102 3090.2207 A 132.02047 132.02047 0 0 1 1339.5605 3070.3418 C 1338.9346 3084.88 1337.2394 3098.8073 1360.2812 3092.2148 C 1362.4589 3091.5918 1364.2742 3090.9182 1365.9102 3090.2207 z M 1339.5605 3070.3418 C 1340.1336 3057.0316 1339.7568 3043.2487 1318.6855 3044.1836 A 132.02047 132.02047 0 0 0 1339.5605 3070.3418 z M 1318.6855 3044.1836 A 132.02047 132.02047 0 0 1 1302.8184 3005.4199 L 1213.252 3005.4199 C 1213.7549 3005.8664 1214.2432 3006.2603 1214.7598 3006.7598 C 1248.0729 3038.9679 1168.4469 3046.1055 1207.7285 3070.6836 C 1247.0101 3095.2617 1218.6073 3020.5304 1262.1406 3036.4043 C 1305.6739 3052.2782 1235.8344 3091.1862 1281.7168 3097.6621 C 1327.5992 3104.138 1271.2563 3047.4219 1317.4824 3044.2168 C 1317.9102 3044.1871 1318.2737 3044.2019 1318.6855 3044.1836 z M 1213.252 3005.4199 C 1203.7066 2996.9463 1196.5771 2997.7993 1190.6152 3002.2461 L 1190.6152 3005.4199 L 1213.252 3005.4199 z M 1190.6152 3002.2461 L 1190.6152 2841.5508 C 1190.197 2844.3297 1189.1995 2847.4815 1187.4141 2851.1367 C 1167.0767 2892.7723 1135.6837 2819.249 1124.4473 2864.2031 C 1113.2108 2909.1572 1175.5058 2859.0514 1173.8613 2905.3594 C 1172.2169 2951.6673 1113.6329 2897.2684 1121.6523 2942.9062 C 1129.6718 2988.5441 1166.2023 2917.433 1183.5352 2960.4062 C 1200.868 3003.3795 1125.2226 2977.5129 1151.1113 3015.9434 C 1168.9785 3042.4663 1176.6361 3012.6728 1190.6152 3002.2461 z M 1190.6152 2841.5508 C 1190.9202 2839.5243 1190.9107 2837.7009 1190.6152 2836.0664 L 1190.6152 2841.5508 z M 1190.6152 2836.0664 L 1190.6152 2801.9023 C 1181.6381 2789.0344 1174.9799 2773.0279 1159.0117 2793.4414 C 1134.7963 2824.3981 1186.7009 2814.4105 1190.6152 2836.0664 z M 1302.8184 3005.4199 L 1407.9395 3005.4199 C 1408.4489 3001.8445 1410.2905 2997.751 1414.0527 2992.9414 C 1431.6173 2970.487 1444.2089 2991.4992 1456.0371 3001.3281 L 1456.0371 2968.3711 C 1444.1917 2966.3797 1433.7529 2962.0427 1438.582 2942.7227 C 1441.9659 2929.1847 1448.5094 2925.6834 1456.0371 2926.0957 L 1456.0371 2904.666 C 1448.8394 2904.2888 1442.8999 2900.1468 1440.5664 2886.8672 C 1437.4871 2869.3434 1445.7232 2864.624 1456.0371 2862.9941 L 1456.0371 2845.9238 A 132.02047 132.02047 0 0 0 1442.998 2844.1191 C 1438.1886 2846.5096 1433.1805 2847.0948 1427.959 2843.7285 A 132.02047 132.02047 0 0 0 1299.3945 2975.6211 A 132.02047 132.02047 0 0 0 1302.8184 3005.4199 z "
       transform="scale(0.26458333)" />
    <path
       id="path858"
       style="opacity:0.810811;fill:#ff00ff;fill-opacity:0.502041;stroke:#2a2aff;stroke-width:4.0252;stroke-linejoin:bevel;paint-order:markers fill stroke"
       inkscape:transform-center-x="-0.26778098"
       inkscape:transform-center-y="-0.13640503"
       d="M 205.53906 2648.1016 L 205.53906 2806.7773 C 212.61214 2816.916 221.12497 2825.1068 236.77539 2811.9902 C 272.28924 2782.2262 193.36886 2769.4583 234.29492 2747.7285 C 275.22098 2725.9987 241.58906 2798.5253 286.13867 2785.7793 C 330.68829 2773.0333 263.78363 2729.2715 310.00977 2726.0664 C 356.2359 2722.8614 296.01218 2775.4381 341.89453 2781.9141 C 387.77689 2788.39 344.45694 2721.1984 387.99023 2737.0723 C 431.52352 2752.9462 355.12073 2776.4825 394.40234 2801.0605 C 433.68396 2825.6386 421.43881 2746.6376 454.75195 2778.8457 C 488.0651 2811.0538 408.69526 2801.4777 434.58398 2839.9082 C 437.40899 2844.1018 440.17183 2846.8543 442.88086 2848.6016 A 132.02047 132.02047 0 0 1 446.33984 2848.4727 A 132.02047 132.02047 0 0 1 457.92773 2848.9922 C 462.44752 2846.7444 466.78588 2842.9854 470.96289 2839.4121 L 470.96289 2648.1016 L 205.53906 2648.1016 z M 470.96289 2839.4121 L 470.96289 2850.7969 A 132.02047 132.02047 0 0 1 500.66992 2860.1797 C 502.1775 2856.8927 501.87567 2851.9048 498.75195 2844.1602 C 490.38427 2823.4142 481.16443 2830.6851 470.96289 2839.4121 z M 500.66992 2860.1797 C 497.02449 2868.1278 482.66869 2866.0178 470.96289 2867.8672 L 470.96289 2909.541 C 488.50138 2910.459 513.54678 2888.8921 512.38086 2921.7246 C 511.23168 2954.0857 488.43146 2931.929 470.96289 2930.9707 L 470.96289 2973.2441 C 486.67904 2975.886 504.87972 2974.3861 493.2832 2998.127 C 485.45876 3014.1454 478.35949 3012.3507 470.96289 3006.2051 L 470.96289 3010.293 L 422.86328 3010.293 C 419.50676 3033.8494 475.5956 3034.3145 444.76172 3060.1562 C 409.24787 3089.9202 427.06669 3011.987 386.14062 3033.7168 C 347.21613 3054.3839 412.66335 3081.5237 380.83789 3095.0957 A 132.02047 132.02047 0 0 0 446.33984 3112.5137 A 132.02047 132.02047 0 0 0 578.36133 2980.4922 A 132.02047 132.02047 0 0 0 500.66992 2860.1797 z M 380.83789 3095.0957 A 132.02047 132.02047 0 0 1 354.48633 3075.2148 C 353.86038 3089.7531 352.16322 3103.6803 375.20508 3097.0879 C 377.38386 3096.4645 379.20137 3095.7936 380.83789 3095.0957 z M 354.48633 3075.2148 C 355.05937 3061.9054 354.68116 3048.1253 333.61328 3049.0586 A 132.02047 132.02047 0 0 0 354.48633 3075.2148 z M 333.61328 3049.0586 A 132.02047 132.02047 0 0 1 317.74414 3010.293 L 228.17578 3010.293 C 228.67903 3010.7397 229.16858 3011.133 229.68555 3011.6328 C 262.99869 3043.8409 183.37268 3050.9785 222.6543 3075.5566 C 261.93591 3100.1347 233.53116 3025.4054 277.06445 3041.2793 C 320.59774 3057.1532 250.75827 3096.0592 296.64062 3102.5352 C 342.52298 3109.0111 286.18011 3052.2949 332.40625 3049.0898 C 332.83524 3049.0601 333.20037 3049.0769 333.61328 3049.0586 z M 228.17578 3010.293 C 218.63083 3001.8202 211.50073 3002.6744 205.53906 3007.1211 L 205.53906 3010.293 L 228.17578 3010.293 z M 205.53906 3007.1211 L 205.53906 2846.4238 C 205.12082 2849.2028 204.12528 2852.3565 202.33984 2856.0117 C 182.00244 2897.6473 150.60757 2824.124 139.37109 2869.0781 C 128.13462 2914.0322 190.43156 2863.9264 188.78711 2910.2344 C 187.14266 2956.5423 128.55868 2902.1434 136.57812 2947.7812 C 144.59757 2993.4191 181.12613 2922.308 198.45898 2965.2812 C 215.79183 3008.2545 140.14643 2982.3859 166.03516 3020.8164 C 183.9023 3047.3393 191.56003 3017.5479 205.53906 3007.1211 z M 205.53906 2846.4238 C 205.84406 2844.3974 205.83451 2842.5759 205.53906 2840.9414 L 205.53906 2846.4238 z M 205.53906 2840.9414 L 205.53906 2806.7773 C 196.56195 2793.9094 189.90566 2777.901 173.9375 2798.3145 C 149.72211 2829.2711 201.6247 2819.2855 205.53906 2840.9414 z M 317.74414 3010.293 L 422.86328 3010.293 C 423.37273 3006.7176 425.21435 3002.626 428.97656 2997.8164 C 446.54218 2975.3608 459.13413 2996.3768 470.96289 3006.2051 L 470.96289 2973.2441 C 459.11681 2971.2529 448.67649 2966.9187 453.50586 2947.5977 C 456.89002 2934.0585 463.43434 2930.5577 470.96289 2930.9707 L 470.96289 2909.541 C 463.76458 2909.1642 457.82386 2905.0226 455.49023 2891.7422 C 452.41078 2874.2173 460.64811 2869.4968 470.96289 2867.8672 L 470.96289 2850.7969 A 132.02047 132.02047 0 0 0 457.92773 2848.9922 C 453.11575 2851.3853 448.10539 2851.9712 442.88086 2848.6016 A 132.02047 132.02047 0 0 0 314.32031 2980.4922 A 132.02047 132.02047 0 0 0 317.74414 3010.293 z "
       transform="scale(0.26458333)" />
    <path
       id="rect864"
       style="fill:#ffff00;fill-opacity:0.502041;stroke:#44aa00;stroke-width:4.0252;stroke-linejoin:bevel;paint-order:markers fill stroke"
       d="M 690.61523 2643.2266 L 690.61523 2801.9043 C 697.68802 2812.042 706.20027 2820.2309 721.84961 2807.1152 C 757.36346 2777.3512 678.44503 2764.5853 719.37109 2742.8555 C 760.29716 2721.1256 726.66328 2793.6522 771.21289 2780.9062 C 815.76251 2768.1603 748.8598 2724.3984 795.08594 2721.1934 C 841.31207 2717.9883 781.0864 2770.5651 826.96875 2777.041 C 872.8511 2783.517 829.53311 2716.3253 873.06641 2732.1992 C 916.5997 2748.0731 840.1969 2771.6094 879.47852 2796.1875 C 918.76013 2820.7656 906.51498 2741.7626 939.82812 2773.9707 C 973.14127 2806.1788 893.76948 2796.6047 919.6582 2835.0352 C 922.48424 2839.2303 925.249 2841.9814 927.95898 2843.7285 A 132.02047 132.02047 0 0 1 931.41602 2843.5996 A 132.02047 132.02047 0 0 1 942.99609 2844.1191 C 947.51759 2841.8719 951.85863 2838.1136 956.03711 2834.5391 L 956.03711 2643.2266 L 690.61523 2643.2266 z M 956.03711 2834.5391 L 956.03711 2845.9238 A 132.02047 132.02047 0 0 1 985.74414 2855.3086 C 987.2531 2852.0217 986.95071 2847.0338 983.82617 2839.2871 C 975.45829 2818.5407 966.23893 2825.8118 956.03711 2834.5391 z M 985.74414 2855.3086 C 982.09671 2863.2537 967.74168 2861.1449 956.03711 2862.9941 L 956.03711 2904.666 C 973.57566 2905.5852 998.62298 2884.0182 997.45703 2916.8516 C 996.30781 2949.2138 973.50594 2927.0524 956.03711 2926.0957 L 956.03711 2968.3711 C 971.75364 2971.0133 989.9563 2969.5122 978.35938 2993.2539 C 970.53488 3009.2725 963.43376 3007.4758 956.03711 3001.3301 L 956.03711 3005.4199 L 907.93945 3005.4199 C 904.58286 3028.9764 960.67179 3029.4415 929.83789 3055.2832 C 894.32405 3085.0472 912.14286 3007.112 871.2168 3028.8418 C 832.2923 3049.5089 897.73757 3076.6487 865.91211 3090.2207 A 132.02047 132.02047 0 0 0 931.41602 3107.6406 A 132.02047 132.02047 0 0 0 1063.4355 2975.6211 A 132.02047 132.02047 0 0 0 985.74414 2855.3086 z M 865.91211 3090.2207 A 132.02047 132.02047 0 0 1 839.56055 3070.3398 C 838.93467 3084.8788 837.23836 3098.8076 860.28125 3092.2148 C 862.46004 3091.5915 864.27559 3090.9186 865.91211 3090.2207 z M 839.56055 3070.3398 C 840.13348 3057.0307 839.75571 3043.2497 818.6875 3044.1836 A 132.02047 132.02047 0 0 0 839.56055 3070.3398 z M 818.6875 3044.1836 A 132.02047 132.02047 0 0 1 802.81836 3005.4199 L 713.25195 3005.4199 C 713.75487 3005.8664 714.24315 3006.2603 714.75977 3006.7598 C 748.07291 3038.9679 668.4469 3046.1055 707.72852 3070.6836 C 747.01013 3095.2617 718.60733 3020.5304 762.14062 3036.4043 C 805.67391 3052.2782 735.83445 3091.1862 781.7168 3097.6621 C 827.59915 3104.138 771.25628 3047.4219 817.48242 3044.2168 C 817.91094 3044.1871 818.27503 3044.2019 818.6875 3044.1836 z M 713.25195 3005.4199 C 703.70659 2996.9463 696.57708 2997.7993 690.61523 3002.2461 L 690.61523 3005.4199 L 713.25195 3005.4199 z M 690.61523 3002.2461 L 690.61523 2841.5488 C 690.19718 2844.3282 689.19991 2847.4807 687.41406 2851.1367 C 667.07665 2892.7723 635.68374 2819.249 624.44727 2864.2031 C 613.21079 2909.1572 675.50578 2859.0514 673.86133 2905.3594 C 672.21688 2951.6673 613.6329 2897.2684 621.65234 2942.9062 C 629.67179 2988.5441 666.20231 2917.433 683.53516 2960.4062 C 700.86801 3003.3795 625.2226 2977.5129 651.11133 3015.9434 C 668.97855 3042.4663 676.63608 3012.6728 690.61523 3002.2461 z M 690.61523 2841.5488 C 690.91981 2839.5239 690.91027 2837.7019 690.61523 2836.0684 L 690.61523 2841.5488 z M 690.61523 2836.0684 L 690.61523 2801.9043 C 681.63738 2789.036 674.98075 2773.0268 659.01172 2793.4414 C 634.79562 2824.399 686.70355 2814.41 690.61523 2836.0684 z M 802.81836 3005.4199 L 907.93945 3005.4199 C 908.44891 3001.8445 910.28858 2997.751 914.05078 2992.9414 C 931.61632 2970.4858 944.20839 2991.5018 956.03711 3001.3301 L 956.03711 2968.3711 C 944.19172 2966.3797 933.75289 2962.0427 938.58203 2942.7227 C 941.9659 2929.1847 948.50939 2925.6834 956.03711 2926.0957 L 956.03711 2904.666 C 948.8394 2904.2888 942.89794 2900.1468 940.56445 2886.8672 C 937.48503 2869.3425 945.72247 2864.6238 956.03711 2862.9941 L 956.03711 2845.9238 A 132.02047 132.02047 0 0 0 942.99609 2844.1191 C 938.18668 2846.5095 933.18047 2847.0948 927.95898 2843.7285 A 132.02047 132.02047 0 0 0 799.39453 2975.6211 A 132.02047 132.02047 0 0 0 802.81836 3005.4199 z "
       transform="scale(0.26458333)" />
    <path
       id="circle878"
       style="opacity:1;fill:#0000ff;fill-opacity:0.502041;stroke:#ff9955;stroke-width:1.065;stroke-linejoin:bevel;paint-order:markers fill stroke"
       d="m 750.44651,525.84696 a 34.930416,34.930416 0 0 0 -3.0644,-0.13745 34.930416,34.930416 0 0 0 -0.91519,0.0341 c 0.10408,0.0671 0.20865,0.1456 0.31213,0.20103 0.20399,0.10928 0.40666,0.19635 0.60822,0.26303 0.20156,0.0667 0.40188,0.11318 0.601,0.14107 0.1991,0.0279 0.39706,0.0371 0.59375,0.03 0.19672,-0.007 0.39222,-0.0305 0.58653,-0.0687 0.19431,-0.0383 0.38735,-0.0914 0.57931,-0.15708 0.19192,-0.0657 0.38298,-0.14386 0.57255,-0.23307 0.0426,-0.02 0.0837,-0.0518 0.1261,-0.0729 z" />
    <path
       id="path1101"
       style="opacity:1;fill:#0000ff;fill-opacity:0.502041;stroke:#ff9955;stroke-width:1.065;stroke-linejoin:bevel;paint-order:markers fill stroke"
       d="m 730.05087,590.96134 a 34.930416,34.930416 0 0 0 17.33124,4.60902 34.930416,34.930416 0 0 0 34.93069,-34.93069 34.930416,34.930416 0 0 0 -20.55691,-31.83268 c -0.016,0.0349 -0.0248,0.0766 -0.0424,0.11006 -0.0759,0.14449 -0.16597,0.27586 -0.26924,0.39481 -0.10327,0.11899 -0.21979,0.22572 -0.34777,0.32195 -0.128,0.0962 -0.26746,0.18161 -0.41756,0.25786 -0.15007,0.0763 -0.31052,0.14356 -0.48006,0.20259 -0.33912,0.11803 -0.71446,0.20408 -1.1157,0.26975 -0.40124,0.0657 -0.82836,0.11088 -1.27074,0.14623 -0.44236,0.0354 -0.90019,0.0613 -1.36268,0.0884 -0.46252,0.0271 -0.93004,0.0553 -1.39166,0.0961 -0.46164,0.0409 -0.91728,0.0943 -1.35702,0.17106 -0.43976,0.0767 -0.86352,0.1765 -1.26039,0.31109 -0.19844,0.0673 -0.38984,0.14354 -0.57362,0.22942 -0.18375,0.0859 -0.35957,0.18164 -0.52605,0.28888 -0.1665,0.10726 -0.32369,0.22574 -0.47027,0.35708 -0.14658,0.13136 -0.28265,0.27535 -0.40669,0.43357 -0.12403,0.15825 -0.23648,0.33097 -0.33538,0.51885 -0.0989,0.18785 -0.18418,0.39108 -0.25527,0.61132 -0.0711,0.22024 -0.1278,0.45723 -0.16846,0.71263 -0.0407,0.25537 -0.0657,0.52887 -0.0734,0.82216 -0.008,0.29329 0.002,0.60659 0.03,0.94052 0.028,0.33393 0.0748,0.68874 0.14107,1.06608 0.0663,0.37735 0.14349,0.72711 0.23101,1.05058 0.0875,0.32348 0.18532,0.6209 0.29247,0.89401 0.10719,0.2731 0.22352,0.52154 0.34883,0.74776 0.12531,0.22622 0.25961,0.43005 0.40153,0.61288 0.14192,0.1828 0.29155,0.34491 0.44855,0.48781 0.157,0.14291 0.32139,0.26665 0.49194,0.37312 0.17058,0.10647 0.34763,0.19571 0.53022,0.26921 0.18257,0.0735 0.37071,0.13113 0.56378,0.17521 0.19309,0.044 0.39068,0.0744 0.59272,0.0925 0.20206,0.0181 0.40857,0.024 0.61806,0.0196 0.41897,-0.009 0.85133,-0.0591 1.29088,-0.13695 0.43955,-0.0778 0.88638,-0.18282 1.33429,-0.30178 0.44789,-0.11896 0.89697,-0.25175 1.34099,-0.38396 0.44405,-0.13222 0.8826,-0.26379 1.31051,-0.38138 0.42794,-0.11758 0.84479,-0.22105 1.24439,-0.29609 0.3996,-0.0751 0.78197,-0.12197 1.14101,-0.12663 0.17952,-0.002 0.3533,0.006 0.52039,0.0264 0.16708,0.0205 0.32797,0.0534 0.48109,0.10025 0.15314,0.0468 0.29853,0.10784 0.43616,0.18447 0.13764,0.0767 0.26747,0.16912 0.38809,0.27905 0.1206,0.10994 0.23228,0.23725 0.33433,0.38397 0.10208,0.14671 0.1945,0.31273 0.27649,0.49971 0.082,0.18696 0.15354,0.39508 0.21392,0.6258 0.0604,0.23071 0.10951,0.48376 0.14676,0.76171 0.0372,0.27794 0.0623,0.58084 0.0749,0.9095 0.0126,0.32867 0.0126,0.68321 -10e-4,1.06609 -0.0136,0.38288 -0.0385,0.73705 -0.0744,1.06402 -0.0359,0.32694 -0.0827,0.62661 -0.13954,0.90122 -0.0569,0.27461 -0.12391,0.52398 -0.2005,0.74983 -0.0766,0.22585 -0.1628,0.42857 -0.25787,0.60926 -0.095,0.18068 -0.19886,0.33943 -0.31109,0.47852 -0.11221,0.13912 -0.23257,0.25858 -0.36068,0.35968 -0.12812,0.1011 -0.26398,0.18394 -0.40672,0.25064 -0.14272,0.0667 -0.29247,0.1171 -0.44855,0.15295 -0.15605,0.0359 -0.31866,0.057 -0.48678,0.0657 -0.16812,0.009 -0.34147,0.005 -0.52038,-0.0103 -0.35783,-0.0301 -0.73639,-0.10403 -1.12964,-0.20722 -0.39328,-0.10321 -0.80158,-0.23582 -1.2201,-0.38343 -0.41852,-0.14764 -0.84699,-0.31052 -1.28053,-0.47387 -0.43355,-0.16338 -0.87217,-0.32708 -1.31051,-0.4775 -0.43836,-0.15044 -0.87656,-0.28757 -1.3095,-0.39637 -0.43291,-0.1088 -0.86066,-0.18941 -1.27794,-0.22788 -0.20865,-0.0192 -0.41473,-0.028 -0.61754,-0.0243 -0.20283,0.004 -0.40219,0.0199 -0.5979,0.0501 -0.19571,0.0303 -0.38783,0.0745 -0.57515,0.13488 -0.18735,0.0604 -0.3701,0.1369 -0.54777,0.23101 -0.17769,0.0941 -0.35002,0.20603 -0.51676,0.33745 -0.16676,0.13139 -0.32763,0.28244 -0.48215,0.45474 -0.15454,0.1723 -0.30287,0.36563 -0.44389,0.5824 -0.14105,0.21675 -0.27474,0.45657 -0.40103,0.72139 -0.12626,0.26482 -0.24479,0.5548 -0.35502,0.87127 -0.11022,0.31647 -0.21248,0.65977 -0.3054,1.03145 -0.0929,0.37171 -0.16436,0.72258 -0.21601,1.0537 -0.0516,0.3311 -0.0834,0.64225 -0.0966,0.93533 -0.0132,0.29308 -0.007,0.56764 0.015,0.82529 0.0225,0.25763 0.062,0.49821 0.11732,0.72295 0.0553,0.22474 0.12604,0.43397 0.21134,0.62838 0.0853,0.19439 0.18516,0.37389 0.29766,0.54055 0.1125,0.16663 0.23776,0.32004 0.37465,0.46146 0.1369,0.14142 0.28546,0.27135 0.44392,0.39015 0.15846,0.1188 0.32663,0.22686 0.50384,0.32557 0.17722,0.0987 0.36338,0.18804 0.55656,0.26922 0.38631,0.1624 0.80184,0.29228 1.23507,0.39999 0.4332,0.10769 0.88395,0.19315 1.34152,0.26665 0.45757,0.0735 0.92189,0.13499 1.38131,0.19481 0.45942,0.0598 0.91413,0.11785 1.35287,0.1845 0.43875,0.0666 0.86119,0.14165 1.25677,0.23563 0.39557,0.094 0.76411,0.20701 1.094,0.34883 0.16494,0.0709 0.32027,0.14894 0.46458,0.23564 0.14427,0.0867 0.27757,0.18174 0.39841,0.28681 0.12083,0.10506 0.22944,0.22024 0.32401,0.34623 0.0946,0.126 0.17533,0.26289 0.24082,0.41238 0.0655,0.14946 0.11578,0.31123 0.14936,0.48678 0.0335,0.17555 0.0502,0.36481 0.0491,0.56896 -10e-4,0.20415 -0.0202,0.42355 -0.0589,0.65887 -0.0386,0.23534 -0.0967,0.48696 -0.17568,0.75602 -0.079,0.26908 -0.1791,0.55554 -0.30128,0.86092 -0.12219,0.30541 -0.26697,0.62934 -0.43511,0.97359 -0.16817,0.34425 -0.33499,0.65747 -0.50075,0.94155 -0.16576,0.28411 -0.33036,0.53914 -0.49403,0.76689 -0.16364,0.22773 -0.32596,0.42839 -0.48781,0.60357 -0.16185,0.17518 -0.32287,0.32525 -0.48318,0.45164 -0.16034,0.12642 -0.31996,0.22916 -0.47906,0.3106 -0.15909,0.0814 -0.31776,0.14113 -0.47593,0.18137 -0.15814,0.0403 -0.31583,0.0612 -0.47337,0.0641 -0.1575,0.003 -0.31464,-0.0122 -0.4718,-0.0429 -0.15714,-0.0307 -0.31419,-0.0775 -0.47128,-0.13798 -0.15708,-0.0605 -0.31448,-0.13467 -0.4718,-0.22116 -0.31464,-0.17304 -0.62995,-0.39431 -0.94724,-0.64855 -0.31728,-0.25424 -0.63629,-0.54136 -0.95858,-0.84645 -0.32229,-0.30509 -0.64812,-0.62836 -0.97772,-0.95396 -0.32961,-0.32557 -0.66328,-0.65373 -1.00253,-0.96943 -0.33927,-0.31573 -0.68384,-0.61905 -1.03508,-0.89453 -0.35126,-0.27549 -0.70932,-0.52324 -1.07487,-0.72813 -0.18277,-0.10243 -0.36718,-0.19373 -0.55398,-0.27284 -0.1868,-0.0791 -0.37579,-0.14597 -0.56687,-0.19794 -0.19111,-0.0519 -0.38462,-0.089 -0.58034,-0.11006 -0.19571,-0.021 -0.3937,-0.0261 -0.59428,-0.0124 -0.20058,0.0137 -0.40349,0.046 -0.60925,0.0982 -0.2058,0.0522 -0.41455,0.12457 -0.62582,0.2191 -0.21125,0.0945 -0.42532,0.21124 -0.64233,0.35192 -0.21701,0.14066 -0.43683,0.30552 -0.6599,0.4961 -0.22307,0.19055 -0.4491,0.40685 -0.67852,0.65111 -0.22942,0.24426 -0.4621,0.51626 -0.69816,0.81804 -0.23603,0.30176 -0.44394,0.59288 -0.62579,0.87437 -0.18185,0.28146 -0.33745,0.55306 -0.46871,0.81544 -0.13123,0.26239 -0.2382,0.51568 -0.32245,0.76018 -0.0843,0.24447 -0.14618,0.48067 -0.18708,0.70847 -0.0409,0.22781 -0.0609,0.4471 -0.062,0.6594 -10e-4,0.2123 0.0167,0.41746 0.0517,0.61544 0.035,0.19802 0.087,0.38926 0.15451,0.57415 0.0675,0.18486 0.15055,0.36343 0.24702,0.53639 0.0964,0.17298 0.20637,0.34004 0.32813,0.50231 0.12174,0.16224 0.25551,0.31957 0.39894,0.47231 0.28686,0.30549 0.61336,0.59306 0.96531,0.86765 0.35195,0.27458 0.72914,0.53636 1.11725,0.78962 0.38812,0.25326 0.78698,0.49797 1.18235,0.73948 0.39537,0.24152 0.78745,0.47948 1.16118,0.71882 0.37372,0.23935 0.72898,0.48035 1.05214,0.72708 0.32316,0.24675 0.61412,0.49956 0.85783,0.76327 0.12184,0.13187 0.23159,0.26622 0.32814,0.40412 0.0965,0.13788 0.17986,0.27911 0.24751,0.42426 0.0677,0.14513 0.11991,0.29446 0.15505,0.44802 0.0351,0.15357 0.0532,0.3112 0.0522,0.4744 -9.7e-4,0.16319 -0.0207,0.33189 -0.0615,0.50591 -0.0407,0.17402 -0.10248,0.35346 -0.18656,0.53951 -0.0841,0.18603 -0.19087,0.37849 -0.32192,0.57775 -0.13108,0.19925 -0.28657,0.40539 -0.46821,0.61907 -0.18163,0.21367 -0.38944,0.43476 -0.62529,0.66405 -0.23582,0.22929 -0.49958,0.46704 -0.79322,0.71313 -0.29363,0.24609 -0.57327,0.46419 -0.84026,0.6563 -0.26699,0.19211 -0.52112,0.35822 -0.76327,0.49969 -0.24212,0.1415 -0.47231,0.25823 -0.69141,0.35245 -0.2191,0.0942 -0.42691,0.16574 -0.62479,0.21601 -0.19785,0.0502 -0.38584,0.0792 -0.5643,0.0889 -0.17846,0.01 -0.34764,1.6e-4 -0.5085,-0.0274 -0.16084,-0.0276 -0.3133,-0.0729 -0.45837,-0.13436 -0.14504,-0.0615 -0.28284,-0.13901 -0.41391,-0.23101 -0.13108,-0.092 -0.25525,-0.19862 -0.37415,-0.31779 -0.1189,-0.11919 -0.23254,-0.25077 -0.34107,-0.39378 -0.21704,-0.28604 -0.41506,-0.6164 -0.60151,-0.97771 -0.18645,-0.36132 -0.36142,-0.75396 -0.53176,-1.16377 -0.17031,-0.40979 -0.33618,-0.83714 -0.50487,-1.26865 -0.16868,-0.43151 -0.33989,-0.86704 -0.52142,-1.29347 -0.1815,-0.4264 -0.37304,-0.84362 -0.58187,-1.23817 -0.20884,-0.39452 -0.43511,-0.76639 -0.68575,-1.10225 -0.1253,-0.16794 -0.25686,-0.32666 -0.39531,-0.47491 -0.13848,-0.14824 -0.28374,-0.28561 -0.4372,-0.41081 -0.15343,-0.1252 -0.31501,-0.23813 -0.48522,-0.33695 -0.17023,-0.0988 -0.34914,-0.18362 -0.53798,-0.25268 -0.1888,-0.0691 -0.38761,-0.12266 -0.59684,-0.15867 -0.20924,-0.036 -0.429,-0.0547 -0.66043,-0.0542 -0.23143,4.3e-4 -0.47421,0.0202 -0.72967,0.0605 -0.25545,0.0402 -0.52332,0.10112 -0.8046,0.18449 -0.2813,0.0833 -0.57628,0.189 -0.88521,0.31883 -0.30896,0.12985 -0.63212,0.28387 -0.97049,0.46355 -0.33838,0.17965 -0.64699,0.36097 -0.92761,0.54414 -0.28059,0.1832 -0.533,0.36817 -0.75964,0.55449 -0.22662,0.18632 -0.42714,0.3742 -0.60357,0.56327 -0.17642,0.18909 -0.32888,0.37957 -0.45889,0.57102 -0.13002,0.19148 -0.23765,0.38375 -0.32504,0.57724 -0.0874,0.19347 -0.15455,0.3878 -0.2031,0.58291 -0.0486,0.1951 -0.0785,0.39118 -0.092,0.58756 -0.0135,0.19637 -0.0105,0.39341 0.007,0.59065 0.0177,0.19725 0.0498,0.39447 0.0951,0.59222 0.0452,0.19775 0.10369,0.39589 0.17259,0.59375 0.13782,0.39576 0.31882,0.79147 0.52866,1.18547 0.20984,0.39399 0.44815,0.78642 0.69969,1.17565 0.25154,0.38922 0.51633,0.77507 0.77928,1.15652 0.26297,0.38145 0.52438,0.75845 0.76843,1.12911 0.24405,0.37068 0.47074,0.73509 0.66558,1.09193 0.19487,0.35684 0.35801,0.70588 0.47337,1.04592 0.0577,0.17003 0.10327,0.33756 0.13539,0.50282 0.0321,0.16526 0.0504,0.32824 0.0532,0.48834 0.003,0.1601 -0.01,0.31774 -0.0403,0.47233 -0.0304,0.15457 -0.0784,0.30607 -0.14573,0.45474 -0.0673,0.1487 -0.15401,0.29427 -0.26202,0.43667 -0.10797,0.14243 -0.23714,0.28178 -0.38962,0.41754 -0.15248,0.13576 -0.3279,0.26816 -0.52866,0.39688 -0.20077,0.12874 -0.4267,0.25386 -0.67953,0.37518 -0.10999,0.0528 -0.24554,0.10215 -0.36587,0.15348 z" />
    <path
       id="path1099"
       style="opacity:1;fill:#0000ff;fill-opacity:0.502041;stroke:#ff9955;stroke-width:1.065;stroke-linejoin:bevel;paint-order:markers fill stroke"
       d="m 717.55603,578.78069 a 34.930416,34.930416 0 0 0 5.52265,6.9205 c 0.0145,-0.33663 0.0307,-0.67416 0.0362,-1.00976 0.008,-0.46337 0.002,-0.92199 -0.0284,-1.36734 -0.0303,-0.44537 -0.0854,-0.87749 -0.17777,-1.28625 -0.0462,-0.20436 -0.10174,-0.40304 -0.16794,-0.59478 -0.0662,-0.19174 -0.14329,-0.37616 -0.23256,-0.55295 -0.0892,-0.17677 -0.19058,-0.34589 -0.30592,-0.50538 -0.11533,-0.15952 -0.24421,-0.3097 -0.38862,-0.44958 -0.14438,-0.13991 -0.30408,-0.26961 -0.48059,-0.38759 -0.17647,-0.11798 -0.36972,-0.22408 -0.58134,-0.31782 -0.21161,-0.0937 -0.44169,-0.17468 -0.69143,-0.24183 -0.24974,-0.0672 -0.51941,-0.12038 -0.81029,-0.15864 -0.29088,-0.0383 -0.60288,-0.0617 -0.93792,-0.0687 -0.23556,-0.005 -0.49739,0.009 -0.75602,0.0202 z" />
    <path
       id="path1097"
       style="opacity:1;fill:#0000ff;fill-opacity:0.502041;stroke:#ff9955;stroke-width:1.065;stroke-linejoin:bevel;paint-order:markers fill stroke"
       d="m 717.55603,578.78069 c 0.25863,-0.0115 0.52046,-0.0251 0.75602,-0.0202 0.33504,0.007 0.64704,0.0305 0.93792,0.0687 0.29088,0.0383 0.56055,0.0915 0.81029,0.15864 0.24974,0.0671 0.47982,0.14812 0.69143,0.24183 0.21162,0.0937 0.40487,0.19984 0.58134,0.31782 0.17651,0.11798 0.33621,0.24768 0.48059,0.38759 0.14441,0.13988 0.27329,0.29006 0.38862,0.44958 0.11534,0.15949 0.21667,0.32861 0.30592,0.50538 0.0893,0.17679 0.16634,0.36121 0.23256,0.55295 0.0662,0.19174 0.12177,0.39042 0.16794,0.59478 0.0924,0.40876 0.14745,0.84088 0.17777,1.28625 0.0303,0.44535 0.036,0.90397 0.0284,1.36734 -0.005,0.3356 -0.0217,0.67313 -0.0362,1.00976 a 34.930416,34.930416 0 0 0 6.97219,5.26015 c 0.12033,-0.0513 0.25588,-0.1007 0.36587,-0.15348 0.25283,-0.12132 0.47876,-0.24644 0.67953,-0.37518 0.20076,-0.12872 0.37618,-0.26112 0.52866,-0.39688 0.15248,-0.13576 0.28165,-0.27511 0.38962,-0.41754 0.10801,-0.1424 0.19474,-0.28797 0.26202,-0.43667 0.0673,-0.14867 0.11536,-0.30017 0.14573,-0.45474 0.0303,-0.15459 0.0431,-0.31223 0.0403,-0.47233 -0.003,-0.1601 -0.0211,-0.32308 -0.0532,-0.48834 -0.0321,-0.16526 -0.0777,-0.33279 -0.13539,-0.50282 -0.11536,-0.34004 -0.2785,-0.68908 -0.47337,-1.04592 -0.19484,-0.35684 -0.42153,-0.72125 -0.66558,-1.09193 -0.24405,-0.37066 -0.50546,-0.74766 -0.76843,-1.12911 -0.26295,-0.38145 -0.52774,-0.7673 -0.77928,-1.15652 -0.25154,-0.38923 -0.48985,-0.78166 -0.69969,-1.17565 -0.20984,-0.394 -0.39084,-0.78971 -0.52866,-1.18547 -0.0689,-0.19786 -0.12737,-0.396 -0.17259,-0.59375 -0.0453,-0.19775 -0.0773,-0.39497 -0.0951,-0.59222 -0.0178,-0.19724 -0.0208,-0.39428 -0.007,-0.59065 0.0135,-0.19638 0.0434,-0.39246 0.092,-0.58756 0.0485,-0.19511 0.11571,-0.38944 0.2031,-0.58291 0.0874,-0.19349 0.19502,-0.38576 0.32504,-0.57724 0.13001,-0.19145 0.28247,-0.38193 0.45889,-0.57102 0.17643,-0.18907 0.37695,-0.37695 0.60357,-0.56327 0.22664,-0.18632 0.47905,-0.37129 0.75964,-0.55449 0.28062,-0.18317 0.58923,-0.36449 0.92761,-0.54414 0.33837,-0.17968 0.66153,-0.3337 0.97049,-0.46355 0.30893,-0.12983 0.60391,-0.23548 0.88521,-0.31883 0.28128,-0.0834 0.54915,-0.14427 0.8046,-0.18449 0.25546,-0.0402 0.49824,-0.06 0.72967,-0.0605 0.23143,-4.5e-4 0.45119,0.0183 0.66043,0.0542 0.20923,0.036 0.40804,0.0896 0.59684,0.15867 0.18884,0.0691 0.36775,0.15388 0.53798,0.25268 0.17021,0.0988 0.33179,0.21175 0.48522,0.33695 0.15346,0.1252 0.29872,0.26257 0.4372,0.41081 0.13845,0.14825 0.27001,0.30697 0.39531,0.47491 0.25064,0.33586 0.47691,0.70773 0.68575,1.10225 0.20883,0.39455 0.40037,0.81177 0.58187,1.23817 0.18153,0.42643 0.35274,0.86196 0.52142,1.29347 0.16869,0.43151 0.33456,0.85886 0.50487,1.26865 0.17034,0.40981 0.34531,0.80245 0.53176,1.16377 0.18645,0.36131 0.38447,0.69167 0.60151,0.97771 0.10853,0.14301 0.22217,0.27459 0.34107,0.39378 0.1189,0.11917 0.24307,0.22583 0.37415,0.31779 0.13107,0.092 0.26887,0.16955 0.41391,0.23101 0.14507,0.0614 0.29753,0.10679 0.45837,0.13436 0.16086,0.0275 0.33004,0.0371 0.5085,0.0274 0.17846,-0.01 0.36645,-0.0386 0.5643,-0.0889 0.19788,-0.0503 0.40569,-0.12182 0.62479,-0.21601 0.2191,-0.0942 0.44929,-0.21095 0.69141,-0.35245 0.24215,-0.14147 0.49628,-0.30758 0.76327,-0.49969 0.26699,-0.19211 0.54663,-0.41021 0.84026,-0.6563 0.29364,-0.24609 0.5574,-0.48384 0.79322,-0.71313 0.23585,-0.22929 0.44366,-0.45038 0.62529,-0.66405 0.18164,-0.21368 0.33713,-0.41982 0.46821,-0.61907 0.13105,-0.19926 0.23786,-0.39172 0.32192,-0.57775 0.0841,-0.18605 0.14584,-0.36549 0.18656,-0.53951 0.0407,-0.17402 0.0605,-0.34272 0.0615,-0.50591 10e-4,-0.1632 -0.017,-0.32083 -0.0522,-0.4744 -0.0351,-0.15356 -0.0874,-0.30289 -0.15505,-0.44802 -0.0677,-0.14515 -0.15097,-0.28638 -0.24751,-0.42426 -0.0965,-0.1379 -0.2063,-0.27225 -0.32814,-0.40412 -0.24371,-0.26371 -0.53467,-0.51652 -0.85783,-0.76327 -0.32316,-0.24673 -0.67842,-0.48773 -1.05214,-0.72708 -0.37373,-0.23934 -0.76581,-0.4773 -1.16118,-0.71882 -0.39537,-0.24151 -0.79423,-0.48622 -1.18235,-0.73948 -0.38811,-0.25326 -0.7653,-0.51504 -1.11725,-0.78962 -0.35195,-0.27459 -0.67845,-0.56216 -0.96531,-0.86765 -0.14343,-0.15274 -0.2772,-0.31007 -0.39894,-0.47231 -0.12176,-0.16227 -0.23169,-0.32933 -0.32813,-0.50231 -0.0965,-0.17296 -0.1795,-0.35153 -0.24702,-0.53639 -0.0675,-0.18489 -0.11951,-0.37613 -0.15451,-0.57415 -0.035,-0.19798 -0.0528,-0.40314 -0.0517,-0.61544 10e-4,-0.2123 0.0211,-0.43159 0.062,-0.6594 0.0409,-0.2278 0.10281,-0.464 0.18708,-0.70847 0.0842,-0.2445 0.19122,-0.49779 0.32245,-0.76018 0.13126,-0.26238 0.28686,-0.53398 0.46871,-0.81544 0.18185,-0.28149 0.38976,-0.57261 0.62579,-0.87437 0.23606,-0.30178 0.46874,-0.57378 0.69816,-0.81804 0.22942,-0.24426 0.45545,-0.46056 0.67852,-0.65111 0.22307,-0.19058 0.44289,-0.35544 0.6599,-0.4961 0.21701,-0.14068 0.43108,-0.25738 0.64233,-0.35192 0.21127,-0.0945 0.42002,-0.1669 0.62582,-0.2191 0.20576,-0.0522 0.40867,-0.0845 0.60925,-0.0982 0.20058,-0.0137 0.39857,-0.009 0.59428,0.0124 0.19572,0.021 0.38923,0.0581 0.58034,0.11006 0.19108,0.052 0.38007,0.11883 0.56687,0.19794 0.1868,0.0791 0.37121,0.17041 0.55398,0.27284 0.36555,0.20489 0.72361,0.45264 1.07487,0.72813 0.35124,0.27548 0.69581,0.5788 1.03508,0.89453 0.33925,0.3157 0.67292,0.64386 1.00253,0.96943 0.3296,0.3256 0.65543,0.64887 0.97772,0.95396 0.32229,0.30509 0.6413,0.59221 0.95858,0.84645 0.31729,0.25424 0.6326,0.47551 0.94724,0.64855 0.15732,0.0865 0.31472,0.16065 0.4718,0.22116 0.15709,0.0605 0.31414,0.10727 0.47128,0.13798 0.15716,0.0307 0.3143,0.0457 0.4718,0.0429 0.15754,-0.003 0.31523,-0.0238 0.47337,-0.0641 0.15817,-0.0402 0.31684,-0.1 0.47593,-0.18137 0.1591,-0.0814 0.31872,-0.18418 0.47906,-0.3106 0.16031,-0.12639 0.32133,-0.27646 0.48318,-0.45164 0.16185,-0.17518 0.32417,-0.37584 0.48781,-0.60357 0.16367,-0.22775 0.32827,-0.48278 0.49403,-0.76689 0.16576,-0.28408 0.33258,-0.5973 0.50075,-0.94155 0.16814,-0.34425 0.31292,-0.66818 0.43511,-0.97359 0.12218,-0.30538 0.22225,-0.59184 0.30128,-0.86092 0.079,-0.26906 0.13703,-0.52068 0.17568,-0.75602 0.0387,-0.23532 0.0578,-0.45472 0.0589,-0.65887 10e-4,-0.20415 -0.0155,-0.39341 -0.0491,-0.56896 -0.0336,-0.17555 -0.0839,-0.33732 -0.14936,-0.48678 -0.0655,-0.14949 -0.14626,-0.28638 -0.24082,-0.41238 -0.0946,-0.12599 -0.20318,-0.24117 -0.32401,-0.34623 -0.12084,-0.10507 -0.25414,-0.20011 -0.39841,-0.28681 -0.14431,-0.0867 -0.29964,-0.16476 -0.46458,-0.23564 -0.32989,-0.14182 -0.69843,-0.25485 -1.094,-0.34883 -0.39558,-0.094 -0.81802,-0.16898 -1.25677,-0.23563 -0.43874,-0.0667 -0.89345,-0.12467 -1.35287,-0.1845 -0.45942,-0.0598 -0.92374,-0.12131 -1.38131,-0.19481 -0.45757,-0.0735 -0.90832,-0.15896 -1.34152,-0.26665 -0.43323,-0.10771 -0.84876,-0.23759 -1.23507,-0.39999 -0.19318,-0.0812 -0.37934,-0.17053 -0.55656,-0.26922 -0.17721,-0.0987 -0.34538,-0.20677 -0.50384,-0.32557 -0.15846,-0.1188 -0.30702,-0.24873 -0.44392,-0.39015 -0.13689,-0.14142 -0.26215,-0.29483 -0.37465,-0.46146 -0.1125,-0.16666 -0.21235,-0.34616 -0.29766,-0.54055 -0.0853,-0.19441 -0.15605,-0.40364 -0.21134,-0.62838 -0.0553,-0.22474 -0.0949,-0.46532 -0.11732,-0.72295 -0.0225,-0.25765 -0.0281,-0.53221 -0.015,-0.82529 0.0132,-0.29308 0.045,-0.60423 0.0966,-0.93533 0.0516,-0.33112 0.12311,-0.68199 0.21601,-1.0537 0.0929,-0.37168 0.19518,-0.71498 0.3054,-1.03145 0.11023,-0.31647 0.22876,-0.60645 0.35502,-0.87127 0.12629,-0.26482 0.25998,-0.50464 0.40103,-0.72139 0.14102,-0.21677 0.28935,-0.4101 0.44389,-0.5824 0.15452,-0.1723 0.31539,-0.32335 0.48215,-0.45474 0.16674,-0.13142 0.33907,-0.24336 0.51676,-0.33745 0.17767,-0.0941 0.36042,-0.17063 0.54777,-0.23101 0.18732,-0.0604 0.37944,-0.10461 0.57515,-0.13488 0.19571,-0.0302 0.39507,-0.0464 0.5979,-0.0501 0.20281,-0.004 0.40889,0.005 0.61754,0.0243 0.41728,0.0385 0.84503,0.11908 1.27794,0.22788 0.43294,0.1088 0.87114,0.24593 1.3095,0.39637 0.43834,0.15042 0.87696,0.31412 1.31051,0.4775 0.43354,0.16335 0.86201,0.32623 1.28053,0.47387 0.41852,0.14761 0.82682,0.28022 1.2201,0.38343 0.39325,0.10319 0.77181,0.17714 1.12964,0.20722 0.17891,0.0151 0.35226,0.0189 0.52038,0.0103 0.16812,-0.009 0.33073,-0.0298 0.48678,-0.0657 0.15608,-0.0358 0.30583,-0.0863 0.44855,-0.15295 0.14274,-0.0667 0.2786,-0.14954 0.40672,-0.25064 0.12811,-0.1011 0.24847,-0.22056 0.36068,-0.35968 0.11223,-0.13909 0.21605,-0.29784 0.31109,-0.47852 0.0951,-0.18069 0.18127,-0.38341 0.25787,-0.60926 0.0766,-0.22585 0.14364,-0.47522 0.2005,-0.74983 0.0569,-0.27461 0.10366,-0.57428 0.13954,-0.90122 0.0359,-0.32697 0.0608,-0.68114 0.0744,-1.06402 0.0136,-0.38288 0.0136,-0.73742 10e-4,-1.06609 -0.0126,-0.32866 -0.0377,-0.63156 -0.0749,-0.9095 -0.0373,-0.27795 -0.0864,-0.531 -0.14676,-0.76171 -0.0604,-0.23072 -0.13192,-0.43884 -0.21392,-0.6258 -0.082,-0.18698 -0.17441,-0.353 -0.27649,-0.49971 -0.10205,-0.14672 -0.21373,-0.27403 -0.33433,-0.38397 -0.12062,-0.10993 -0.25045,-0.2024 -0.38809,-0.27905 -0.13763,-0.0766 -0.28302,-0.13764 -0.43616,-0.18447 -0.15312,-0.0469 -0.31401,-0.0797 -0.48109,-0.10025 -0.16709,-0.0205 -0.34087,-0.0287 -0.52039,-0.0264 -0.35904,0.005 -0.74141,0.0516 -1.14101,0.12663 -0.3996,0.075 -0.81645,0.17851 -1.24439,0.29609 -0.42791,0.11759 -0.86646,0.24916 -1.31051,0.38138 -0.44402,0.13221 -0.8931,0.265 -1.34099,0.38396 -0.44791,0.11896 -0.89474,0.22397 -1.33429,0.30178 -0.43955,0.0778 -0.87191,0.12817 -1.29088,0.13695 -0.20949,0.004 -0.416,-0.002 -0.61806,-0.0196 -0.20204,-0.0181 -0.39963,-0.0485 -0.59272,-0.0925 -0.19307,-0.0441 -0.38121,-0.10168 -0.56378,-0.17521 -0.18259,-0.0735 -0.35964,-0.16274 -0.53022,-0.26921 -0.17055,-0.10647 -0.33494,-0.23021 -0.49194,-0.37312 -0.157,-0.1429 -0.30663,-0.30501 -0.44855,-0.48781 -0.14192,-0.18283 -0.27622,-0.38666 -0.40153,-0.61288 -0.12531,-0.22622 -0.24164,-0.47466 -0.34883,-0.74776 -0.10715,-0.27311 -0.20497,-0.57053 -0.29247,-0.89401 -0.0875,-0.32347 -0.1647,-0.67323 -0.23101,-1.05058 -0.0663,-0.37734 -0.11305,-0.73215 -0.14107,-1.06608 -0.028,-0.33393 -0.0376,-0.64723 -0.03,-0.94052 0.008,-0.29329 0.0327,-0.56679 0.0734,-0.82216 0.0407,-0.2554 0.0974,-0.49239 0.16846,-0.71263 0.0711,-0.22024 0.15639,-0.42347 0.25527,-0.61132 0.0989,-0.18788 0.21135,-0.3606 0.33538,-0.51885 0.12404,-0.15822 0.26011,-0.30221 0.40669,-0.43357 0.14658,-0.13134 0.30377,-0.24982 0.47027,-0.35708 0.16648,-0.10724 0.3423,-0.20296 0.52605,-0.28888 0.18378,-0.0859 0.37518,-0.16213 0.57362,-0.22942 0.39687,-0.13459 0.82063,-0.23442 1.26039,-0.31109 0.43974,-0.0767 0.89538,-0.1302 1.35702,-0.17106 0.46162,-0.0409 0.92914,-0.069 1.39166,-0.0961 0.46249,-0.0271 0.92032,-0.053 1.36268,-0.0884 0.44238,-0.0353 0.8695,-0.0806 1.27074,-0.14623 0.40124,-0.0657 0.77658,-0.15172 1.1157,-0.26975 0.16954,-0.059 0.32999,-0.12634 0.48006,-0.20259 0.1501,-0.0762 0.28956,-0.16163 0.41756,-0.25786 0.12798,-0.0962 0.2445,-0.20296 0.34777,-0.32195 0.10327,-0.11895 0.19333,-0.25032 0.26924,-0.39481 0.0176,-0.0335 0.0263,-0.0751 0.0424,-0.11006 a 34.930416,34.930416 0 0 0 -11.30938,-2.96003 c -0.0424,0.0211 -0.0836,0.0528 -0.1261,0.0729 -0.18957,0.0892 -0.38063,0.1674 -0.57255,0.23307 -0.19196,0.0656 -0.385,0.11882 -0.57931,0.15708 -0.19431,0.0383 -0.38981,0.0616 -0.58653,0.0687 -0.19669,0.007 -0.39465,-0.002 -0.59375,-0.03 -0.19912,-0.0279 -0.39944,-0.0744 -0.601,-0.14107 -0.20156,-0.0667 -0.40423,-0.15375 -0.60822,-0.26303 -0.10348,-0.0554 -0.20805,-0.1339 -0.31213,-0.20103 a 34.930416,34.930416 0 0 0 -34.015,34.89606 34.930416,34.930416 0 0 0 5.10411,18.14102 z" />
    <path
       id="path880"
       style="opacity:0.810811;fill:#ff00ff;fill-opacity:0.502041;stroke:#2a2aff;stroke-width:4.0252;stroke-linejoin:bevel;paint-order:markers fill stroke"
       inkscape:transform-center-x="-0.26778098"
       inkscape:transform-center-y="-0.13640503"
       d="M 2015.9609 2041.2031 C 2032.508 2038.588 2054.4295 2043.967 2043.752 2017.4941 C 2035.3835 1996.7463 2026.1636 2004.02 2015.9609 2012.748 L 2015.9609 2041.2031 z "
       transform="scale(0.26458333)" />
    <path
       id="path906"
       style="opacity:0.810811;fill:#ff00ff;fill-opacity:0.502041;stroke:#2a2aff;stroke-width:4.0252;stroke-linejoin:bevel;paint-order:markers fill stroke"
       inkscape:transform-center-x="-0.26778098"
       inkscape:transform-center-y="-0.13640503"
       d="M 2015.9609 2104.3027 C 2033.43 2105.2579 2056.2335 2127.4221 2057.3828 2095.0586 C 2058.5488 2062.224 2033.4996 2083.7939 2015.9609 2082.873 L 2015.9609 2104.3027 z "
       transform="scale(0.26458333)" />
    <path
       id="path904"
       style="opacity:0.810811;fill:#ff00ff;fill-opacity:0.502041;stroke:#2a2aff;stroke-width:4.0252;stroke-linejoin:bevel;paint-order:markers fill stroke"
       inkscape:transform-center-x="-0.26778098"
       inkscape:transform-center-y="-0.13640503"
       d="M 2015.9609 2179.5352 C 2023.3583 2185.6823 2030.4599 2187.481 2038.2852 2171.4609 C 2049.8821 2147.7191 2031.6775 2149.2204 2015.9609 2146.5781 L 2015.9609 2179.5352 z "
       transform="scale(0.26458333)" />
    <path
       id="path902"
       style="opacity:0.810811;fill:#ff00ff;fill-opacity:0.502041;stroke:#2a2aff;stroke-width:1.065;stroke-linejoin:bevel;paint-order:markers fill stroke"
       inkscape:transform-center-x="-0.26778098"
       inkscape:transform-center-y="-0.13640503"
       d="m 466.50693,590.98047 c 0.13319,0.11822 0.26262,0.2222 0.39944,0.35449 8.81412,8.52173 -12.2536,10.41022 -1.86034,16.91317 10.39326,6.50296 2.87835,-13.2697 14.39654,-9.06973 11.51818,4.19997 -6.96019,14.49438 5.17953,16.2078 12.13969,1.71344 -2.76767,-13.29272 9.46298,-14.14074 12.23066,-0.84799 -0.46323,16.07185 11.32385,12.6995 11.78708,-3.37238 -7.93549,-11.0181 2.89285,-16.76747 10.82836,-5.74934 6.11431,14.87101 15.5107,6.99596 8.15813,-6.83729 -6.68256,-6.96034 -5.79449,-13.19298 z" />
    <path
       id="path900"
       style="opacity:0.810811;fill:#ff00ff;fill-opacity:0.502041;stroke:#2a2aff;stroke-width:4.0252;stroke-linejoin:bevel;paint-order:markers fill stroke"
       inkscape:transform-center-x="-0.26778098"
       inkscape:transform-center-y="-0.13640503"
       d="M 1750.5391 2019.7656 C 1750.1201 2022.5428 1749.1237 2025.6938 1747.3398 2029.3457 C 1727.0024 2070.9812 1695.6095 1997.4561 1684.373 2042.4102 C 1673.1366 2087.3642 1735.4316 2037.2585 1733.7871 2083.5664 C 1732.1427 2129.8743 1673.5587 2075.4754 1681.5781 2121.1133 C 1689.5976 2166.7512 1726.1261 2095.64 1743.459 2138.6133 C 1760.7918 2181.5865 1685.1484 2155.7199 1711.0371 2194.1504 C 1728.9034 2220.6719 1736.5614 2190.8852 1750.5391 2180.457 L 1750.5391 2019.7656 z "
       transform="scale(0.26458333)" />
    <path
       id="path898"
       style="opacity:0.810811;fill:#ff00ff;fill-opacity:0.502041;stroke:#2a2aff;stroke-width:4.0252;stroke-linejoin:bevel;paint-order:markers fill stroke"
       inkscape:transform-center-x="-0.26778098"
       inkscape:transform-center-y="-0.13640503"
       d="M 1750.5391 1980.1113 C 1741.562 1967.2434 1734.9057 1951.2349 1718.9375 1971.6484 C 1694.7221 2002.6051 1746.6247 1992.6175 1750.5391 2014.2734 L 1750.5391 1980.1113 z "
       transform="scale(0.26458333)" />
    <path
       id="path896"
       style="opacity:0.810811;fill:#ff00ff;fill-opacity:0.502041;stroke:#2a2aff;stroke-width:4.0252;stroke-linejoin:bevel;paint-order:markers fill stroke"
       inkscape:transform-center-x="-0.26778098"
       inkscape:transform-center-y="-0.13640503"
       d="M 1750.5391 1980.1113 L 1750.5391 2014.2734 C 1750.8349 2015.91 1750.8453 2017.7361 1750.5391 2019.7656 L 1750.5391 2180.457 C 1756.501 2176.009 1763.63 2175.1537 1773.1758 2183.627 L 1967.8633 2183.627 C 1968.3727 2180.0516 1970.2144 2175.958 1973.9766 2171.1484 C 1991.5411 2148.6942 2004.1328 2169.7061 2015.9609 2179.5352 L 2015.9609 2146.5781 C 2004.1156 2144.5867 1993.6787 2140.2496 1998.5078 2120.9297 C 2001.8914 2107.3929 2008.434 2103.8912 2015.9609 2104.3027 L 2015.9609 2082.873 C 2008.7641 2082.4952 2002.8235 2078.3546 2000.4902 2065.0762 C 1997.411 2047.5527 2005.6473 2042.8331 2015.9609 2041.2031 L 2015.9609 2012.748 C 2005.0317 2022.0977 1992.9734 2033.1181 1979.584 2013.2422 C 1953.6953 1974.8117 2033.0651 1984.3858 1999.752 1952.1777 C 1966.4388 1919.9696 1978.684 1998.9726 1939.4023 1974.3945 C 1900.1207 1949.8164 1976.5235 1926.2801 1932.9902 1910.4062 C 1889.4569 1894.5324 1932.7769 1961.724 1886.8945 1955.248 C 1841.0122 1948.7721 1901.2359 1896.1953 1855.0098 1899.4004 C 1808.7836 1902.6054 1875.6883 1946.3673 1831.1387 1959.1133 C 1786.5891 1971.8593 1820.221 1899.3327 1779.2949 1921.0625 C 1738.3689 1942.7923 1817.2892 1955.5602 1781.7754 1985.3242 C 1766.125 1998.4408 1757.6121 1990.25 1750.5391 1980.1113 z "
       transform="scale(0.26458333)" />
    <path
       id="rect886"
       style="fill:#ffff00;fill-opacity:0.502041;stroke:#44aa00;stroke-width:1.065;stroke-linejoin:bevel;paint-order:markers fill stroke"
       d="m 587.53776,546.77454 c 0.008,-0.0499 0.024,-0.1056 0.03,-0.15452 0.0316,-0.25667 0.043,-0.4999 0.0357,-0.7312 -0.006,-0.19846 -0.0329,-0.38372 -0.0657,-0.56483 z" />
    <path
       id="path1094"
       style="fill:#ffff00;fill-opacity:0.502041;stroke:#44aa00;stroke-width:1.065;stroke-linejoin:bevel;paint-order:markers fill stroke"
       d="m 589.16168,597.45974 c -0.13504,-0.11986 -0.27376,-0.25379 -0.40515,-0.35967 -0.26093,-0.21027 -0.51499,-0.39344 -0.76224,-0.5514 -0.24723,-0.15795 -0.48757,-0.29059 -0.72192,-0.39997 -0.23434,-0.10935 -0.46243,-0.19544 -0.68471,-0.25992 -0.22228,-0.0645 -0.43855,-0.10742 -0.64955,-0.13073 -0.21103,-0.0233 -0.41699,-0.027 -0.61754,-0.0129 -0.20058,0.0141 -0.39613,0.0462 -0.58706,0.0941 -0.19092,0.0478 -0.37703,0.11131 -0.55914,0.18915 -0.18209,0.0778 -0.36023,0.16976 -0.53433,0.27387 -0.1593,0.0953 -0.3144,0.20349 -0.46768,0.31782 v 0.83973 z" />
    <path
       id="path1092"
       style="fill:#ffff00;fill-opacity:0.502041;stroke:#44aa00;stroke-width:1.065;stroke-linejoin:bevel;paint-order:markers fill stroke"
       d="m 657.76397,589.04948 c -0.26823,-0.22291 -0.53731,-0.45675 -0.80925,-0.71416 -0.32229,-0.3051 -0.64759,-0.62836 -0.97719,-0.95396 -0.32961,-0.32557 -0.66328,-0.65373 -1.00253,-0.96943 -0.33927,-0.31573 -0.68384,-0.61905 -1.03507,-0.89453 -0.35127,-0.27549 -0.70933,-0.52324 -1.07487,-0.72814 -0.18278,-0.10242 -0.36719,-0.19372 -0.55399,-0.27283 -0.1868,-0.0791 -0.37579,-0.14597 -0.56687,-0.19794 -0.19111,-0.0519 -0.38462,-0.089 -0.58034,-0.11007 -0.19571,-0.021 -0.3937,-0.0261 -0.59428,-0.0124 -0.20058,0.0137 -0.40349,0.046 -0.60925,0.0982 -0.2058,0.0522 -0.41455,0.12456 -0.62582,0.2191 -0.21125,0.0945 -0.42532,0.21124 -0.64233,0.35192 -0.21701,0.14065 -0.43683,0.30552 -0.6599,0.4961 -0.22307,0.19055 -0.4491,0.40685 -0.67852,0.65111 -0.22942,0.24426 -0.4621,0.51625 -0.69816,0.81804 -0.23603,0.30176 -0.44447,0.59288 -0.62632,0.87437 -0.18182,0.28146 -0.33745,0.55305 -0.46868,0.81544 -0.13126,0.26239 -0.2377,0.51568 -0.32195,0.76018 -0.0843,0.24447 -0.14618,0.48067 -0.18708,0.70847 -0.009,0.0494 -0.006,0.0945 -0.0134,0.14314 h 12.72582 z" />
    <path
       id="path1090"
       style="fill:#ffff00;fill-opacity:0.502041;stroke:#44aa00;stroke-width:1.065;stroke-linejoin:bevel;paint-order:markers fill stroke"
       d="m 657.76397,569.14424 c -0.1316,-0.007 -0.2641,-0.0179 -0.39325,-0.0155 -0.20283,0.004 -0.40219,0.0199 -0.5979,0.0501 -0.19571,0.0303 -0.38783,0.0745 -0.57515,0.13488 -0.18735,0.0604 -0.3701,0.1369 -0.54777,0.23101 -0.17769,0.0941 -0.35002,0.20603 -0.51676,0.33745 -0.16676,0.13139 -0.32763,0.28244 -0.48215,0.45474 -0.15454,0.1723 -0.30287,0.36563 -0.44389,0.5824 -0.14105,0.21675 -0.27474,0.45656 -0.40103,0.72139 -0.12626,0.26482 -0.24529,0.5548 -0.35552,0.87127 -0.11022,0.31647 -0.21198,0.65976 -0.3049,1.03145 -0.0929,0.37171 -0.16436,0.72258 -0.21601,1.0537 -0.0516,0.3311 -0.0834,0.64225 -0.0966,0.93533 -0.0132,0.29308 -0.007,0.56764 0.015,0.82529 0.0225,0.25763 0.062,0.49821 0.11732,0.72295 0.0553,0.22474 0.12604,0.43397 0.21135,0.62838 0.0853,0.19439 0.18515,0.37389 0.29765,0.54055 0.1125,0.16663 0.23776,0.32004 0.37465,0.46146 0.1369,0.14142 0.28546,0.27135 0.44392,0.39015 0.15846,0.1188 0.32663,0.22686 0.50385,0.32557 0.17721,0.0987 0.36337,0.18804 0.55655,0.26921 0.38631,0.16241 0.80134,0.29229 1.23454,0.4 0.37965,0.0944 0.77671,0.16642 1.17615,0.23358 z" />
    <path
       id="path1088"
       style="fill:#ffff00;fill-opacity:0.502041;stroke:#44aa00;stroke-width:1.065;stroke-linejoin:bevel;paint-order:markers fill stroke"
       d="m 657.76397,552.44861 c -0.0638,0.0101 -0.13168,0.0138 -0.19481,0.0248 -0.43976,0.0767 -0.86352,0.1765 -1.26039,0.31109 -0.19844,0.0673 -0.39034,0.14354 -0.57412,0.22942 -0.18378,0.0859 -0.35957,0.18164 -0.52607,0.28888 -0.16648,0.10726 -0.32367,0.22574 -0.47025,0.35708 -0.14658,0.13136 -0.28215,0.27535 -0.40619,0.43357 -0.12403,0.15825 -0.23648,0.33097 -0.33538,0.51885 -0.0989,0.18785 -0.18418,0.39108 -0.25527,0.61132 -0.0711,0.22024 -0.1278,0.45722 -0.16846,0.71263 -0.0407,0.25537 -0.0657,0.52887 -0.0734,0.82216 -0.008,0.29329 0.002,0.60659 0.03,0.94052 0.028,0.33393 0.0748,0.68873 0.14108,1.06608 0.0663,0.37735 0.14348,0.7271 0.231,1.05058 0.0875,0.32348 0.18532,0.6209 0.29247,0.894 0.10719,0.27311 0.22352,0.52155 0.34883,0.74777 0.12531,0.22622 0.25961,0.43005 0.40153,0.61288 0.14192,0.1828 0.29155,0.34491 0.44855,0.48781 0.157,0.1429 0.32139,0.26665 0.49194,0.37312 0.17058,0.10647 0.34711,0.19571 0.5297,0.26921 0.18258,0.0735 0.37123,0.13113 0.5643,0.17521 0.19309,0.044 0.39068,0.0744 0.59272,0.0925 0.0629,0.006 0.12864,0.003 0.19224,0.006 z" />
    <path
       id="path1086"
       style="fill:#ffff00;fill-opacity:0.502041;stroke:#44aa00;stroke-width:1.065;stroke-linejoin:bevel;paint-order:markers fill stroke"
       d="m 657.76397,544.91986 c -0.0962,0.0824 -0.19039,0.15989 -0.28731,0.24289 -0.35187,0.30139 -0.70786,0.60521 -1.06868,0.89607 -0.36078,0.29085 -0.72614,0.56869 -1.09606,0.81856 -0.36989,0.24988 -0.74427,0.47165 -1.12345,0.65008 -0.18957,0.0892 -0.38062,0.16741 -0.57255,0.23308 -0.19196,0.0656 -0.385,0.11882 -0.57931,0.15708 -0.19431,0.0383 -0.38981,0.0616 -0.58653,0.0687 -0.19669,0.007 -0.39465,-0.002 -0.59375,-0.03 -0.19912,-0.0279 -0.39944,-0.0744 -0.601,-0.14108 -0.20156,-0.0667 -0.40423,-0.15374 -0.60822,-0.26302 -0.20402,-0.1093 -0.409,-0.24066 -0.61548,-0.39637 -0.20648,-0.15568 -0.41423,-0.33565 -0.62322,-0.54158 -0.20897,-0.20589 -0.41945,-0.4377 -0.63096,-0.69762 -0.2115,-0.25993 -0.42415,-0.54782 -0.6382,-0.86559 -0.21407,-0.31773 -0.40084,-0.62306 -0.56224,-0.91673 -0.16142,-0.29366 -0.29749,-0.57594 -0.40981,-0.84698 -0.11229,-0.27104 -0.20098,-0.53097 -0.26768,-0.78081 -0.0667,-0.24987 -0.11179,-0.48974 -0.13642,-0.71988 -0.0246,-0.23011 -0.0289,-0.45064 -0.015,-0.66249 0.0139,-0.21183 0.0461,-0.41476 0.0951,-0.60976 0.049,-0.19502 0.11486,-0.38211 0.19534,-0.56174 0.0805,-0.17962 0.17574,-0.35157 0.28422,-0.51728 0.10848,-0.16568 0.22982,-0.32478 0.36277,-0.478 0.13295,-0.15322 0.2776,-0.3007 0.43151,-0.44286 0.30781,-0.28437 0.65368,-0.54792 1.02423,-0.79687 0.37052,-0.24892 0.76536,-0.48337 1.17046,-0.70847 0.4051,-0.22509 0.82047,-0.44085 1.23195,-0.65371 0.41151,-0.21286 0.8195,-0.42286 1.20925,-0.63511 0.38974,-0.21222 0.76137,-0.42688 1.10123,-0.65008 0.33983,-0.2232 0.64772,-0.45498 0.9095,-0.70075 0.13089,-0.12287 0.25046,-0.2491 0.35655,-0.37981 0.1061,-0.1307 0.19871,-0.26569 0.27647,-0.40566 0.0778,-0.13996 0.14062,-0.28495 0.18656,-0.43563 0.046,-0.15068 0.0752,-0.30689 0.0858,-0.46974 0.0106,-0.16285 0.002,-0.33253 -0.0258,-0.50901 -0.0283,-0.17648 -0.0766,-0.35986 -0.14729,-0.55139 -0.0707,-0.19153 -0.16349,-0.39087 -0.28009,-0.59894 -0.11658,-0.20804 -0.2572,-0.42508 -0.42323,-0.65111 -0.166,-0.22603 -0.35772,-0.46098 -0.57668,-0.70641 -0.21897,-0.24546 -0.46509,-0.5011 -0.74055,-0.7674 -0.27543,-0.2663 -0.53898,-0.50411 -0.79168,-0.71469 -0.25268,-0.21056 -0.49456,-0.39412 -0.72605,-0.55243 -0.23148,-0.1583 -0.4527,-0.29098 -0.66455,-0.40047 -0.21188,-0.10951 -0.41442,-0.19576 -0.60825,-0.25995 -0.19381,-0.0642 -0.3787,-0.10636 -0.55602,-0.12867 -0.17733,-0.0223 -0.34714,-0.0249 -0.50954,-0.009 -0.1624,0.0161 -0.31758,0.0508 -0.46664,0.10181 -0.14904,0.051 -0.29165,0.11856 -0.42892,0.201 -0.13726,0.0825 -0.26929,0.17947 -0.39634,0.28991 -0.12706,0.11046 -0.24953,0.23402 -0.36793,0.36898 -0.23681,0.26991 -0.4576,0.58558 -0.66921,0.93277 -0.21162,0.34716 -0.41392,0.72623 -0.61289,1.12292 -0.19896,0.39668 -0.39491,0.81092 -0.59377,1.22938 -0.19886,0.41844 -0.40053,0.84069 -0.61185,1.25315 -0.2113,0.41246 -0.43188,0.81499 -0.66818,1.19372 -0.23627,0.37872 -0.4884,0.73387 -0.76221,1.05111 -0.13692,0.15862 -0.27924,0.30792 -0.42789,0.44595 -0.14864,0.13806 -0.30366,0.2648 -0.46561,0.37881 -0.16193,0.11398 -0.33065,0.21529 -0.50745,0.30178 -0.17682,0.0865 -0.36176,0.1579 -0.55501,0.21341 -0.19325,0.0555 -0.39492,0.0947 -0.60616,0.11576 -0.21125,0.0211 -0.43167,0.0241 -0.66249,0.007 -0.23082,-0.0169 -0.47205,-0.0534 -0.72401,-0.11163 -0.25196,-0.0582 -0.51493,-0.13822 -0.78959,-0.24133 -0.27469,-0.1031 -0.56097,-0.22942 -0.8599,-0.38086 -0.29895,-0.15142 -0.61055,-0.32801 -0.93535,-0.53123 -0.32478,-0.2032 -0.61987,-0.40611 -0.88676,-0.60873 -0.26691,-0.20264 -0.50548,-0.40476 -0.71831,-0.60669 -0.21283,-0.20193 -0.39968,-0.40349 -0.56224,-0.60463 -0.16256,-0.20111 -0.30091,-0.40182 -0.41704,-0.60203 -0.1161,-0.20021 -0.21024,-0.39973 -0.28369,-0.59891 -0.0734,-0.1992 -0.12612,-0.39777 -0.16073,-0.59584 -0.0346,-0.19807 -0.0511,-0.3959 -0.0506,-0.59272 4.8e-4,-0.19682 0.0179,-0.39312 0.0496,-0.58859 0.0317,-0.1955 0.0778,-0.38992 0.13695,-0.58396 0.0591,-0.19405 0.13118,-0.38733 0.21394,-0.57981 0.16555,-0.38497 0.3746,-0.76703 0.61185,-1.14515 0.23725,-0.37811 0.50284,-0.75252 0.78134,-1.12291 0.27853,-0.37042 0.57004,-0.73682 0.85939,-1.09866 0.28935,-0.36182 0.57621,-0.71885 0.84595,-1.07124 0.26972,-0.35243 0.5224,-0.7002 0.74205,-1.04233 0.21969,-0.34213 0.40654,-0.67876 0.54571,-1.00976 0.0696,-0.16549 0.12729,-0.3294 0.17105,-0.49194 0.0438,-0.16256 0.0737,-0.32369 0.0879,-0.48318 0.0141,-0.15952 0.0126,-0.31752 -0.007,-0.47387 -0.0193,-0.15634 -0.0566,-0.31099 -0.11319,-0.46405 -0.0565,-0.15309 -0.13285,-0.30453 -0.23048,-0.45424 -0.0976,-0.14972 -0.21667,-0.29768 -0.35914,-0.44391 -0.14246,-0.14624 -0.30806,-0.29091 -0.49919,-0.43355 -0.19114,-0.14266 -0.40754,-0.28326 -0.65112,-0.4222 -0.2436,-0.13896 -0.51456,-0.27619 -0.81444,-0.41134 -0.29985,-0.13518 -0.62862,-0.26874 -0.98856,-0.4 -0.35994,-0.13123 -0.69741,-0.24061 -1.01388,-0.3302 -0.3165,-0.0896 -0.61196,-0.15933 -0.88781,-0.20982 -0.27586,-0.0505 -0.5324,-0.0817 -0.7705,-0.0956 -0.23809,-0.0139 -0.45778,-0.01 -0.66092,0.0104 -0.20318,0.0202 -0.38963,0.0568 -0.56071,0.1085 -0.17108,0.0518 -0.32687,0.11822 -0.46871,0.19897 -0.14182,0.0807 -0.26956,0.17544 -0.38499,0.28265 -0.11542,0.10724 -0.21818,0.22696 -0.31004,0.35814 -0.0919,0.13116 -0.17278,0.27374 -0.24392,0.42633 -0.0711,0.15255 -0.13277,0.31533 -0.18603,0.48678 -0.10655,0.3429 -0.18045,0.72072 -0.23254,1.12397 -0.0521,0.40323 -0.0824,0.83204 -0.10285,1.27537 -0.0204,0.44331 -0.0309,0.90162 -0.0424,1.36478 -0.0115,0.46315 -0.0238,0.93096 -0.0491,1.39372 -0.0253,0.46273 -0.0632,0.92008 -0.12507,1.36218 -0.0618,0.44209 -0.14759,0.86902 -0.26871,1.27021 -0.0606,0.20058 -0.13015,0.39478 -0.20982,0.58137 -0.0796,0.18656 -0.1692,0.36533 -0.27077,0.53536 -0.10158,0.16999 -0.21524,0.3312 -0.34158,0.48215 -0.12634,0.15091 -0.26564,0.29133 -0.41963,0.42063 -0.15396,0.1293 -0.3225,0.24728 -0.50694,0.35243 -0.18441,0.10517 -0.38481,0.19748 -0.60254,0.27596 -0.21772,0.0785 -0.45254,0.14348 -0.70641,0.19274 -0.25386,0.0493 -0.52673,0.0832 -0.8196,0.10078 -0.29286,0.0175 -0.60581,0.0183 -0.94051,0.002 -0.33467,-0.0167 -0.69085,-0.0514 -1.07021,-0.10491 -0.37936,-0.0535 -0.73158,-0.11877 -1.05781,-0.19531 -0.32626,-0.0766 -0.62674,-0.16412 -0.90331,-0.26202 -0.27657,-0.0979 -0.52882,-0.2064 -0.75912,-0.32401 -0.23032,-0.11761 -0.43884,-0.24466 -0.62632,-0.38034 -0.18751,-0.13568 -0.3542,-0.2799 -0.50231,-0.43201 -0.14811,-0.15208 -0.27747,-0.31165 -0.38963,-0.47852 -0.11215,-0.16688 -0.20716,-0.34089 -0.2868,-0.52089 -0.0796,-0.18 -0.14375,-0.3661 -0.19431,-0.55761 -0.0505,-0.19148 -0.0878,-0.3883 -0.11266,-0.58962 -0.0249,-0.20132 -0.0376,-0.40699 -0.0403,-0.61651 -0.005,-0.41902 0.0306,-0.85307 0.0935,-1.295 0.0629,-0.44194 0.15304,-0.89191 0.25683,-1.34358 0.1038,-0.45167 0.2208,-0.90464 0.33795,-1.3529 0.11719,-0.44823 0.2344,-0.89177 0.33745,-1.32342 0.10308,-0.43166 0.19222,-0.85177 0.25374,-1.25367 0.0615,-0.4019 0.0953,-0.78565 0.0879,-1.14464 -0.004,-0.17949 -0.0178,-0.35253 -0.0439,-0.51882 -0.0261,-0.16632 -0.0643,-0.32552 -0.11626,-0.47699 -0.052,-0.15145 -0.11771,-0.29549 -0.19897,-0.43045 -0.0812,-0.13499 -0.17803,-0.26091 -0.29196,-0.37778 -0.11393,-0.11684 -0.24474,-0.22434 -0.39481,-0.32141 -0.15005,-0.0971 -0.31938,-0.18378 -0.50901,-0.25943 -0.18963,-0.0756 -0.39989,-0.14017 -0.63251,-0.19275 -0.23262,-0.0526 -0.48731,-0.093 -0.76637,-0.12091 -0.27905,-0.0279 -0.58213,-0.0429 -0.91106,-0.0444 -0.32891,-0.002 -0.68387,0.0102 -1.06609,0.0367 -0.38219,0.0265 -0.73536,0.0637 -1.0609,0.11059 -0.32557,0.0469 -0.62354,0.10338 -0.89606,0.1695 -0.27255,0.0661 -0.51946,0.14165 -0.74261,0.22582 -0.22315,0.0842 -0.42259,0.17692 -0.59997,0.27802 -0.17738,0.10107 -0.33295,0.21077 -0.46818,0.32764 -0.13523,0.11684 -0.25003,0.24114 -0.34674,0.37258 -0.0967,0.13145 -0.17536,0.27006 -0.2372,0.41495 -0.0618,0.14491 -0.10689,0.29601 -0.13747,0.4532 -0.0306,0.15719 -0.0467,0.32004 -0.0496,0.48834 -0.003,0.16833 0.007,0.34208 0.0284,0.52039 0.0421,0.3566 0.12854,0.73181 0.24493,1.12138 0.11641,0.38957 0.26262,0.79335 0.42428,1.20663 0.16166,0.41331 0.33885,0.83624 0.51676,1.26402 0.1779,0.42778 0.35679,0.86043 0.52192,1.29347 0.16512,0.43302 0.31644,0.86651 0.43976,1.29551 0.12335,0.42902 0.21878,0.85344 0.2713,1.26918 0.0263,0.20788 0.0418,0.41367 0.045,0.6165 0.003,0.20283 -0.006,0.40283 -0.03,0.59944 -0.0237,0.19664 -0.0617,0.39002 -0.11576,0.57931 -0.054,0.18925 -0.12433,0.37475 -0.21241,0.55552 -0.088,0.18073 -0.19365,0.35652 -0.31935,0.5276 -0.1257,0.17108 -0.27122,0.3374 -0.4382,0.49766 -0.16698,0.16026 -0.35555,0.31475 -0.56743,0.46302 -0.21188,0.14827 -0.44704,0.29017 -0.70744,0.42529 -0.2604,0.13512 -0.54629,0.26313 -0.85886,0.38396 -0.31256,0.12084 -0.65175,0.23464 -1.02011,0.34002 -0.36832,0.10538 -0.71673,0.18838 -1.04592,0.25117 -0.32917,0.0628 -0.63923,0.10509 -0.93173,0.12814 -0.29247,0.0231 -0.56753,0.0272 -0.82579,0.0134 -0.25823,-0.0138 -0.49956,-0.0453 -0.72604,-0.093 -0.22649,-0.0477 -0.43794,-0.11144 -0.63511,-0.19016 -0.19717,-0.0787 -0.38002,-0.17221 -0.55036,-0.27905 -0.17034,-0.10682 -0.3279,-0.2271 -0.47387,-0.35915 -0.14597,-0.13205 -0.28056,-0.27609 -0.40463,-0.43048 -0.12406,-0.15435 -0.23799,-0.31919 -0.3426,-0.49297 -0.10462,-0.1738 -0.19966,-0.35644 -0.28732,-0.54676 -0.17533,-0.3806 -0.31961,-0.79126 -0.44185,-1.22057 -0.12224,-0.42934 -0.2227,-0.87739 -0.3116,-1.33223 -0.0889,-0.45482 -0.16605,-0.91642 -0.24133,-1.37356 -0.0753,-0.45715 -0.14856,-0.9099 -0.22995,-1.34618 -0.0814,-0.43624 -0.17076,-0.85632 -0.27802,-1.24849 -0.10726,-0.39219 -0.23267,-0.75615 -0.38552,-1.08108 -0.0764,-0.16246 -0.15963,-0.31552 -0.25115,-0.45681 -0.0915,-0.14131 -0.19116,-0.27088 -0.30022,-0.38809 -0.10909,-0.11723 -0.22746,-0.22188 -0.35658,-0.31213 -0.12911,-0.0903 -0.26903,-0.16647 -0.42063,-0.22685 -0.15164,-0.0604 -0.31488,-0.10517 -0.49147,-0.13282 -0.17655,-0.0276 -0.3665,-0.038 -0.57049,-0.03 -0.20399,0.008 -0.42241,0.0346 -0.6563,0.0812 -0.23389,0.0466 -0.48305,0.11348 -0.7493,0.20153 -0.26628,0.0881 -0.54951,0.19728 -0.85061,0.3297 -0.30107,0.1324 -0.62021,0.288 -0.95858,0.46768 -0.33838,0.17965 -0.64564,0.357 -0.92398,0.53226 -0.27834,0.17523 -0.52774,0.34809 -0.74983,0.51935 -0.22209,0.17124 -0.41691,0.34084 -0.58653,0.50848 -0.1696,0.16766 -0.31419,0.33366 -0.43511,0.49818 -0.12091,0.16449 -0.21854,0.32711 -0.29456,0.48884 -0.076,0.16174 -0.13046,0.32221 -0.16536,0.48163 -0.0349,0.15943 -0.05,0.31792 -0.0476,0.47543 0.002,0.1575 0.0224,0.31421 0.0584,0.47024 0.036,0.15605 0.0882,0.31168 0.15401,0.46665 0.0658,0.15496 0.14541,0.30921 0.23717,0.46355 0.18354,0.30861 0.41529,0.61645 0.68009,0.92501 0.26477,0.30853 0.56218,0.61782 0.87796,0.92964 0.31578,0.31181 0.65001,0.62621 0.9865,0.94464 0.33653,0.31845 0.67556,0.64103 1.00254,0.96946 0.32697,0.32842 0.64145,0.6623 0.92863,1.00406 0.28715,0.34177 0.54719,0.69112 0.76428,1.04955 0.10855,0.17923 0.20611,0.36066 0.29146,0.54467 0.0854,0.18402 0.15814,0.37095 0.21654,0.56018 0.0584,0.18926 0.1026,0.38132 0.1302,0.57618 0.0276,0.1949 0.039,0.39233 0.032,0.59325 -0.007,0.20095 -0.0322,0.40495 -0.0775,0.61238 -0.0453,0.20741 -0.11057,0.4182 -0.19793,0.63251 -0.0874,0.21432 -0.19696,0.4326 -0.3302,0.65424 -0.13327,0.22161 -0.28991,0.44654 -0.47284,0.6759 -0.18293,0.22937 -0.39201,0.46271 -0.62839,0.70022 -0.2364,0.23755 -0.50064,0.47945 -0.79427,0.72554 -0.29364,0.24609 -0.57748,0.46403 -0.85265,0.65527 -0.27519,0.19121 -0.54163,0.35555 -0.79944,0.49556 -0.25781,0.14002 -0.50728,0.25586 -0.7488,0.3483 -0.24151,0.0925 -0.47495,0.16177 -0.70125,0.21035 -0.2263,0.0485 -0.44519,0.0759 -0.65733,0.0842 -0.21212,0.008 -0.41743,-0.003 -0.6165,-0.031 -0.19905,-0.0283 -0.39172,-0.0736 -0.57878,-0.13485 -0.18703,-0.0613 -0.36854,-0.13838 -0.54465,-0.22895 -0.17613,-0.0905 -0.34689,-0.19486 -0.51315,-0.3111 -0.16627,-0.1162 -0.32827,-0.24418 -0.48575,-0.3824 -0.31499,-0.27641 -0.61341,-0.59335 -0.89969,-0.93586 -0.28631,-0.34247 -0.5601,-0.71048 -0.82632,-1.08984 -0.0135,-0.0193 -0.0263,-0.0395 -0.0398,-0.0589 v 9.03925 c 0.0328,0.18111 0.0593,0.36637 0.0657,0.56483 0.007,0.2313 -0.004,0.47453 -0.0357,0.7312 -0.006,0.0489 -0.0225,0.10465 -0.03,0.15452 v 42.51783 c 0.15328,-0.11433 0.30838,-0.22254 0.46768,-0.31782 0.1741,-0.10411 0.35224,-0.19606 0.53433,-0.27387 0.18211,-0.0778 0.36822,-0.14132 0.55914,-0.18915 0.19093,-0.0478 0.38648,-0.0799 0.58706,-0.0941 0.20055,-0.0141 0.40651,-0.0104 0.61754,0.0129 0.211,0.0233 0.42727,0.0662 0.64955,0.13073 0.22228,0.0645 0.45037,0.15057 0.68471,0.25992 0.23435,0.10938 0.47469,0.24202 0.72192,0.39997 0.24725,0.15796 0.50131,0.34113 0.76224,0.5514 0.13139,0.10588 0.27011,0.23981 0.40515,0.35967 h 51.51107 c 0.007,-0.0487 0.005,-0.0937 0.0134,-0.14314 0.0409,-0.2278 0.10281,-0.464 0.18708,-0.70847 0.0842,-0.2445 0.19069,-0.49779 0.32195,-0.76018 0.13123,-0.26239 0.28686,-0.53398 0.46868,-0.81544 0.18185,-0.28149 0.39029,-0.57261 0.62632,-0.87437 0.23606,-0.30179 0.46874,-0.57378 0.69816,-0.81804 0.22942,-0.24426 0.45545,-0.46056 0.67852,-0.65111 0.22307,-0.19058 0.44289,-0.35545 0.6599,-0.4961 0.21701,-0.14068 0.43108,-0.25738 0.64233,-0.35192 0.21127,-0.0945 0.42002,-0.1669 0.62582,-0.2191 0.20576,-0.0522 0.40867,-0.0845 0.60925,-0.0982 0.20058,-0.0137 0.39857,-0.009 0.59428,0.0124 0.19572,0.021 0.38923,0.0581 0.58034,0.11007 0.19108,0.052 0.38007,0.11883 0.56687,0.19794 0.1868,0.0791 0.37121,0.17041 0.55399,0.27283 0.36554,0.2049 0.7236,0.45265 1.07487,0.72814 0.35123,0.27548 0.6958,0.5788 1.03507,0.89453 0.33925,0.3157 0.67292,0.64386 1.00253,0.96943 0.3296,0.3256 0.6549,0.64886 0.97719,0.95396 0.27194,0.25741 0.54102,0.49125 0.80925,0.71416 v -8.71987 c -0.39944,-0.0672 -0.7965,-0.1392 -1.17615,-0.23358 -0.4332,-0.10771 -0.84823,-0.23759 -1.23454,-0.4 -0.19318,-0.0812 -0.37934,-0.17052 -0.55655,-0.26921 -0.17722,-0.0987 -0.34539,-0.20677 -0.50385,-0.32557 -0.15846,-0.1188 -0.30702,-0.24873 -0.44392,-0.39015 -0.13689,-0.14142 -0.26215,-0.29483 -0.37465,-0.46146 -0.1125,-0.16666 -0.21235,-0.34616 -0.29765,-0.54055 -0.0853,-0.19441 -0.15606,-0.40364 -0.21135,-0.62838 -0.0553,-0.22474 -0.0949,-0.46532 -0.11732,-0.72295 -0.0225,-0.25765 -0.0281,-0.53221 -0.015,-0.82529 0.0132,-0.29308 0.045,-0.60423 0.0966,-0.93533 0.0516,-0.33112 0.12311,-0.68199 0.21601,-1.0537 0.0929,-0.37169 0.19468,-0.71498 0.3049,-1.03145 0.11023,-0.31647 0.22926,-0.60645 0.35552,-0.87127 0.12629,-0.26483 0.25998,-0.50464 0.40103,-0.72139 0.14102,-0.21677 0.28935,-0.4101 0.44389,-0.5824 0.15452,-0.1723 0.31539,-0.32335 0.48215,-0.45474 0.16674,-0.13142 0.33907,-0.24336 0.51676,-0.33745 0.17767,-0.0941 0.36042,-0.17063 0.54777,-0.23101 0.18732,-0.0604 0.37944,-0.10461 0.57515,-0.13488 0.19571,-0.0302 0.39507,-0.0464 0.5979,-0.0501 0.12915,-0.002 0.26165,0.008 0.39325,0.0155 v -5.66994 c -0.0636,-0.003 -0.12938,-5.8e-4 -0.19224,-0.006 -0.20204,-0.0181 -0.39963,-0.0485 -0.59272,-0.0925 -0.19307,-0.0441 -0.38172,-0.10168 -0.5643,-0.17521 -0.18259,-0.0735 -0.35912,-0.16274 -0.5297,-0.26921 -0.17055,-0.10647 -0.33494,-0.23022 -0.49194,-0.37312 -0.157,-0.1429 -0.30663,-0.30501 -0.44855,-0.48781 -0.14192,-0.18283 -0.27622,-0.38666 -0.40153,-0.61288 -0.12531,-0.22622 -0.24164,-0.47466 -0.34883,-0.74777 -0.10715,-0.2731 -0.20497,-0.57052 -0.29247,-0.894 -0.0875,-0.32348 -0.1647,-0.67323 -0.231,-1.05058 -0.0663,-0.37735 -0.11306,-0.73215 -0.14108,-1.06608 -0.028,-0.33393 -0.0376,-0.64723 -0.03,-0.94052 0.008,-0.29329 0.0327,-0.56679 0.0734,-0.82216 0.0407,-0.25541 0.0974,-0.49239 0.16846,-0.71263 0.0711,-0.22024 0.15639,-0.42347 0.25527,-0.61132 0.0989,-0.18788 0.21135,-0.3606 0.33538,-0.51885 0.12404,-0.15822 0.25961,-0.30221 0.40619,-0.43357 0.14658,-0.13134 0.30377,-0.24982 0.47025,-0.35708 0.1665,-0.10724 0.34229,-0.20297 0.52607,-0.28888 0.18378,-0.0859 0.37568,-0.16213 0.57412,-0.22942 0.39687,-0.13459 0.82063,-0.23442 1.26039,-0.31109 0.0631,-0.011 0.13105,-0.0147 0.19481,-0.0248 z" />
    <path
       id="path1084"
       style="fill:#ffff00;fill-opacity:0.502041;stroke:#44aa00;stroke-width:1.065;stroke-linejoin:bevel;paint-order:markers fill stroke"
       d="m 595.47526,470.93024 v 41.98297 c 0.0135,0.0194 0.0263,0.0396 0.0398,0.0589 0.26622,0.37936 0.54001,0.74737 0.82632,1.08984 0.28628,0.34251 0.5847,0.65945 0.89969,0.93586 0.15748,0.13822 0.31948,0.2662 0.48575,0.3824 0.16626,0.11624 0.33702,0.22056 0.51315,0.3111 0.17611,0.0906 0.35762,0.16767 0.54465,0.22895 0.18706,0.0612 0.37973,0.10654 0.57878,0.13485 0.19907,0.0283 0.40438,0.0393 0.6165,0.031 0.21214,-0.008 0.43103,-0.0357 0.65733,-0.0842 0.2263,-0.0486 0.45974,-0.11788 0.70125,-0.21035 0.24152,-0.0924 0.49099,-0.20828 0.7488,-0.3483 0.25781,-0.14001 0.52425,-0.30435 0.79944,-0.49556 0.27517,-0.19124 0.55901,-0.40918 0.85265,-0.65527 0.29363,-0.24609 0.55787,-0.48799 0.79427,-0.72554 0.23638,-0.23751 0.44546,-0.47085 0.62839,-0.70022 0.18293,-0.22936 0.33957,-0.45429 0.47284,-0.6759 0.13324,-0.22164 0.24283,-0.43992 0.3302,-0.65424 0.0874,-0.21431 0.15266,-0.4251 0.19793,-0.63251 0.0453,-0.20743 0.0706,-0.41143 0.0775,-0.61238 0.007,-0.20092 -0.004,-0.39835 -0.032,-0.59325 -0.0276,-0.19486 -0.0718,-0.38692 -0.1302,-0.57618 -0.0584,-0.18923 -0.13118,-0.37616 -0.21654,-0.56018 -0.0853,-0.18401 -0.18291,-0.36544 -0.29146,-0.54467 -0.21709,-0.35843 -0.47713,-0.70778 -0.76428,-1.04955 -0.28718,-0.34176 -0.60166,-0.67564 -0.92863,-1.00406 -0.32698,-0.32843 -0.66601,-0.65101 -1.00254,-0.96946 -0.33649,-0.31843 -0.67072,-0.63283 -0.9865,-0.94464 -0.31578,-0.31182 -0.61319,-0.62111 -0.87796,-0.92964 -0.2648,-0.30856 -0.49655,-0.6164 -0.68009,-0.92501 -0.0918,-0.15434 -0.17139,-0.30859 -0.23717,-0.46355 -0.0658,-0.15497 -0.118,-0.3106 -0.15401,-0.46665 -0.036,-0.15603 -0.0559,-0.31274 -0.0584,-0.47024 -0.002,-0.15751 0.0127,-0.316 0.0476,-0.47543 0.0349,-0.15942 0.0893,-0.31989 0.16536,-0.48163 0.076,-0.16173 0.17365,-0.32435 0.29456,-0.48884 0.12092,-0.16452 0.26551,-0.33052 0.43511,-0.49818 0.16962,-0.16764 0.36444,-0.33724 0.58653,-0.50848 0.22209,-0.17126 0.47149,-0.34412 0.74983,-0.51935 0.27834,-0.17526 0.5856,-0.35261 0.92398,-0.53226 0.33837,-0.17968 0.65751,-0.33528 0.95858,-0.46768 0.3011,-0.13242 0.58433,-0.24164 0.85061,-0.3297 0.26625,-0.088 0.51541,-0.15496 0.7493,-0.20153 0.23389,-0.0466 0.45231,-0.0731 0.6563,-0.0812 0.20399,-0.008 0.39394,0.002 0.57049,0.03 0.17659,0.0276 0.33983,0.0724 0.49147,0.13282 0.1516,0.0604 0.29152,0.13658 0.42063,0.22685 0.12912,0.0902 0.24749,0.1949 0.35658,0.31213 0.10906,0.11721 0.2087,0.24678 0.30022,0.38809 0.0915,0.14129 0.17473,0.29435 0.25115,0.45681 0.15285,0.32493 0.27826,0.68889 0.38552,1.08108 0.10726,0.39217 0.19661,0.81225 0.27802,1.24849 0.0814,0.43628 0.15468,0.88903 0.22995,1.34618 0.0753,0.45714 0.15243,0.91874 0.24133,1.37356 0.0889,0.45484 0.18936,0.90289 0.3116,1.33223 0.12224,0.42931 0.26652,0.83997 0.44185,1.22057 0.0877,0.19032 0.1827,0.37296 0.28732,0.54676 0.10461,0.17378 0.21854,0.33862 0.3426,0.49297 0.12407,0.15439 0.25866,0.29843 0.40463,0.43048 0.14597,0.13205 0.30353,0.25233 0.47387,0.35915 0.17034,0.10684 0.35319,0.20034 0.55036,0.27905 0.19717,0.0787 0.40862,0.14248 0.63511,0.19016 0.22648,0.0477 0.46781,0.0793 0.72604,0.093 0.25826,0.0138 0.53332,0.01 0.82579,-0.0134 0.2925,-0.0231 0.60256,-0.0654 0.93173,-0.12814 0.32919,-0.0628 0.6776,-0.14579 1.04592,-0.25117 0.36836,-0.10538 0.70755,-0.21918 1.02011,-0.34002 0.31257,-0.12083 0.59846,-0.24884 0.85886,-0.38396 0.2604,-0.13512 0.49556,-0.27702 0.70744,-0.42529 0.21188,-0.14827 0.40045,-0.30276 0.56743,-0.46302 0.16698,-0.16026 0.3125,-0.32658 0.4382,-0.49766 0.1257,-0.17108 0.2313,-0.34687 0.31935,-0.5276 0.0881,-0.18077 0.15836,-0.36627 0.21241,-0.55552 0.054,-0.18929 0.0921,-0.38267 0.11576,-0.57931 0.0236,-0.19661 0.0331,-0.39661 0.03,-0.59944 -0.003,-0.20283 -0.0187,-0.40862 -0.045,-0.6165 -0.0525,-0.41574 -0.14795,-0.84016 -0.2713,-1.26918 -0.12332,-0.429 -0.27464,-0.86249 -0.43976,-1.29551 -0.16513,-0.43304 -0.34402,-0.86569 -0.52192,-1.29347 -0.17791,-0.42778 -0.3551,-0.85071 -0.51676,-1.26402 -0.16166,-0.41328 -0.30787,-0.81706 -0.42428,-1.20663 -0.11639,-0.38957 -0.20281,-0.76478 -0.24493,-1.12138 -0.0211,-0.17831 -0.0314,-0.35206 -0.0284,-0.52039 0.003,-0.1683 0.019,-0.33115 0.0496,-0.48834 0.0306,-0.15719 0.0756,-0.30829 0.13747,-0.4532 0.0618,-0.14489 0.14047,-0.2835 0.2372,-0.41495 0.0967,-0.13144 0.21151,-0.25574 0.34674,-0.37258 0.13523,-0.11687 0.2908,-0.22657 0.46818,-0.32764 0.17738,-0.1011 0.37682,-0.19386 0.59997,-0.27802 0.22315,-0.0842 0.47006,-0.15973 0.74261,-0.22582 0.27252,-0.0661 0.57049,-0.12264 0.89606,-0.1695 0.32554,-0.0469 0.67871,-0.0841 1.0609,-0.11059 0.38222,-0.0265 0.73718,-0.0382 1.06609,-0.0367 0.32893,0.002 0.63201,0.0166 0.91106,0.0444 0.27906,0.0279 0.53375,0.0683 0.76637,0.12091 0.23262,0.0526 0.44288,0.11711 0.63251,0.19275 0.18963,0.0756 0.35896,0.16235 0.50901,0.25943 0.15007,0.0971 0.28088,0.20457 0.39481,0.32141 0.11393,0.11687 0.21074,0.24279 0.29196,0.37778 0.0813,0.13496 0.14701,0.279 0.19897,0.43045 0.052,0.15147 0.0901,0.31067 0.11626,0.47699 0.0261,0.16629 0.0402,0.33933 0.0439,0.51882 0.007,0.35899 -0.0263,0.74274 -0.0879,1.14464 -0.0615,0.4019 -0.15066,0.82201 -0.25374,1.25367 -0.10305,0.43165 -0.22026,0.87519 -0.33745,1.32342 -0.11715,0.44826 -0.23415,0.90123 -0.33795,1.3529 -0.10379,0.45167 -0.19389,0.90164 -0.25683,1.34358 -0.0629,0.44193 -0.0989,0.87598 -0.0935,1.295 0.003,0.20952 0.0154,0.41519 0.0403,0.61651 0.0249,0.20132 0.0621,0.39814 0.11266,0.58962 0.0506,0.19151 0.11467,0.37761 0.19431,0.55761 0.0796,0.18 0.17465,0.35401 0.2868,0.52089 0.11216,0.16687 0.24152,0.32644 0.38963,0.47852 0.14811,0.15211 0.3148,0.29633 0.50231,0.43201 0.18748,0.13568 0.396,0.26273 0.62632,0.38034 0.2303,0.11761 0.48255,0.22611 0.75912,0.32401 0.27657,0.0979 0.57705,0.18547 0.90331,0.26202 0.32623,0.0765 0.67845,0.14179 1.05781,0.19531 0.37936,0.0535 0.73554,0.0882 1.07021,0.10491 0.3347,0.0168 0.64765,0.016 0.94051,-0.002 0.29287,-0.0175 0.56574,-0.0515 0.8196,-0.10078 0.25387,-0.0493 0.48869,-0.11427 0.70641,-0.19274 0.21773,-0.0785 0.41813,-0.17079 0.60254,-0.27596 0.18444,-0.10515 0.35298,-0.22313 0.50694,-0.35243 0.15399,-0.1293 0.29329,-0.26972 0.41963,-0.42063 0.12634,-0.15095 0.24,-0.31216 0.34158,-0.48215 0.10157,-0.17003 0.19113,-0.3488 0.27077,-0.53536 0.0797,-0.18659 0.14925,-0.38079 0.20982,-0.58137 0.12112,-0.40119 0.2069,-0.82812 0.26871,-1.27021 0.0618,-0.4421 0.0998,-0.89945 0.12507,-1.36218 0.0253,-0.46276 0.0376,-0.93057 0.0491,-1.39372 0.0115,-0.46316 0.022,-0.92147 0.0424,-1.36478 0.0204,-0.44333 0.0507,-0.87214 0.10285,-1.27537 0.0521,-0.40325 0.12599,-0.78107 0.23254,-1.12397 0.0533,-0.17145 0.11488,-0.33423 0.18603,-0.48678 0.0711,-0.15259 0.15205,-0.29517 0.24392,-0.42633 0.0919,-0.13118 0.19462,-0.2509 0.31004,-0.35814 0.11543,-0.10721 0.24317,-0.20193 0.38499,-0.28265 0.14184,-0.0807 0.29763,-0.14722 0.46871,-0.19897 0.17108,-0.0517 0.35753,-0.0883 0.56071,-0.1085 0.20314,-0.0202 0.42283,-0.0242 0.66092,-0.0104 0.2381,0.0139 0.49464,0.0451 0.7705,0.0956 0.27585,0.0505 0.57131,0.12023 0.88781,0.20982 0.31647,0.0896 0.65394,0.19897 1.01388,0.3302 0.35994,0.13126 0.68871,0.26482 0.98856,0.4 0.29988,0.13515 0.57084,0.27238 0.81444,0.41134 0.24358,0.13894 0.45998,0.27954 0.65112,0.4222 0.19113,0.14264 0.35673,0.28731 0.49919,0.43355 0.14247,0.14623 0.26154,0.29419 0.35914,0.44391 0.0976,0.14971 0.17394,0.30115 0.23048,0.45424 0.0566,0.15306 0.0939,0.30771 0.11319,0.46405 0.0193,0.15635 0.0208,0.31435 0.007,0.47387 -0.0141,0.15949 -0.0441,0.32062 -0.0879,0.48318 -0.0438,0.16254 -0.10144,0.32645 -0.17105,0.49194 -0.13917,0.331 -0.32602,0.66763 -0.54571,1.00976 -0.21965,0.34213 -0.47233,0.6899 -0.74205,1.04233 -0.26974,0.35239 -0.5566,0.70942 -0.84595,1.07124 -0.28935,0.36184 -0.58086,0.72824 -0.85939,1.09866 -0.2785,0.37039 -0.54409,0.7448 -0.78134,1.12291 -0.23725,0.37812 -0.4463,0.76018 -0.61185,1.14515 -0.0828,0.19248 -0.15481,0.38576 -0.21394,0.57981 -0.0591,0.19404 -0.10523,0.38846 -0.13695,0.58396 -0.0317,0.19547 -0.0491,0.39177 -0.0496,0.58859 -4.5e-4,0.19682 0.0161,0.39465 0.0506,0.59272 0.0346,0.19807 0.0873,0.39664 0.16073,0.59584 0.0734,0.19918 0.16759,0.3987 0.28369,0.59891 0.11613,0.20021 0.25448,0.40092 0.41704,0.60203 0.16256,0.20114 0.34941,0.4027 0.56224,0.60463 0.21283,0.20193 0.4514,0.40405 0.71831,0.60669 0.26689,0.20262 0.56198,0.40553 0.88676,0.60873 0.3248,0.20322 0.6364,0.37981 0.93535,0.53123 0.29893,0.15144 0.58521,0.27776 0.8599,0.38086 0.27466,0.10311 0.53763,0.1831 0.78959,0.24133 0.25196,0.0583 0.49319,0.0948 0.72401,0.11163 0.23082,0.0168 0.45124,0.0138 0.66249,-0.007 0.21124,-0.0211 0.41291,-0.0602 0.60616,-0.11576 0.19325,-0.0555 0.37819,-0.12692 0.55501,-0.21341 0.1768,-0.0865 0.34552,-0.1878 0.50745,-0.30178 0.16195,-0.11401 0.31697,-0.24075 0.46561,-0.37881 0.14865,-0.13803 0.29097,-0.28733 0.42789,-0.44595 0.27381,-0.31724 0.52594,-0.67239 0.76221,-1.05111 0.2363,-0.37873 0.45688,-0.78126 0.66818,-1.19372 0.21132,-0.41246 0.41299,-0.83471 0.61185,-1.25315 0.19886,-0.41846 0.39481,-0.8327 0.59377,-1.22938 0.19897,-0.39669 0.40127,-0.77576 0.61289,-1.12292 0.21161,-0.34719 0.4324,-0.66286 0.66921,-0.93277 0.1184,-0.13496 0.24087,-0.25852 0.36793,-0.36898 0.12705,-0.11044 0.25908,-0.20744 0.39634,-0.28991 0.13727,-0.0824 0.27988,-0.15002 0.42892,-0.201 0.14906,-0.051 0.30424,-0.0857 0.46664,-0.10181 0.1624,-0.0161 0.33221,-0.0135 0.50954,0.009 0.17732,0.0223 0.36221,0.0645 0.55602,0.12867 0.19383,0.0642 0.39637,0.15044 0.60825,0.25995 0.21185,0.10949 0.43307,0.24217 0.66455,0.40047 0.23149,0.15831 0.47337,0.34187 0.72605,0.55243 0.2527,0.21058 0.51625,0.44839 0.79168,0.71469 0.27546,0.2663 0.52158,0.52194 0.74055,0.7674 0.21896,0.24543 0.41068,0.48038 0.57668,0.70641 0.16603,0.22603 0.30665,0.44307 0.42323,0.65111 0.1166,0.20807 0.20942,0.40741 0.28009,0.59894 0.0707,0.19153 0.11901,0.37491 0.14729,0.55139 0.0283,0.17648 0.0364,0.34616 0.0258,0.50901 -0.0106,0.16285 -0.0398,0.31906 -0.0858,0.46974 -0.0459,0.15068 -0.10877,0.29567 -0.18656,0.43563 -0.0778,0.13997 -0.17037,0.27496 -0.27647,0.40566 -0.10609,0.13071 -0.22566,0.25694 -0.35655,0.37981 -0.26178,0.24577 -0.56967,0.47755 -0.9095,0.70075 -0.33986,0.2232 -0.71149,0.43786 -1.10123,0.65008 -0.38975,0.21225 -0.79774,0.42225 -1.20925,0.63511 -0.41148,0.21286 -0.82685,0.42862 -1.23195,0.65371 -0.4051,0.2251 -0.79994,0.45955 -1.17046,0.70847 -0.37055,0.24895 -0.71642,0.5125 -1.02423,0.79687 -0.15391,0.14216 -0.29856,0.28964 -0.43151,0.44286 -0.13295,0.15322 -0.25429,0.31232 -0.36277,0.478 -0.10848,0.16571 -0.20373,0.33766 -0.28422,0.51728 -0.0805,0.17963 -0.14636,0.36672 -0.19534,0.56174 -0.049,0.195 -0.0812,0.39793 -0.0951,0.60976 -0.0139,0.21185 -0.01,0.43238 0.015,0.66249 0.0246,0.23014 0.0697,0.47001 0.13642,0.71988 0.0667,0.24984 0.15539,0.50977 0.26768,0.78081 0.11232,0.27104 0.24839,0.55332 0.40981,0.84698 0.1614,0.29367 0.34817,0.599 0.56224,0.91673 0.21405,0.31777 0.4267,0.60566 0.6382,0.86559 0.21151,0.25992 0.42199,0.49173 0.63096,0.69762 0.20899,0.20593 0.41674,0.3859 0.62322,0.54158 0.20648,0.15571 0.41146,0.28707 0.61548,0.39637 0.20399,0.10928 0.40666,0.19635 0.60822,0.26302 0.20156,0.0667 0.40188,0.11319 0.601,0.14108 0.1991,0.0279 0.39706,0.0371 0.59375,0.03 0.19672,-0.007 0.39222,-0.0305 0.58653,-0.0687 0.19431,-0.0383 0.38735,-0.0914 0.57931,-0.15708 0.19193,-0.0657 0.38298,-0.14386 0.57255,-0.23308 0.37918,-0.17843 0.75356,-0.4002 1.12345,-0.65008 0.36992,-0.24987 0.73528,-0.52771 1.09606,-0.81856 0.36082,-0.29086 0.71681,-0.59468 1.06868,-0.89607 0.0969,-0.083 0.19106,-0.16052 0.28731,-0.24289 v -50.61809 z" />
    <rect
       style="fill:#ffff00;fill-opacity:0.502041;stroke:#44aa00;stroke-width:1.065;stroke-linejoin:bevel;paint-order:markers fill stroke"
       id="rect1108"
       width="70.226601"
       height="95.830048"
       x="-405.99271"
       y="310.82391" />
    <circle
       style="opacity:1;fill:#0000ff;fill-opacity:0.502041;stroke:#ff9955;stroke-width:1.065;stroke-linejoin:bevel;paint-order:markers fill stroke"
       id="circle1110"
       cx="-342.28076"
       cy="398.76923"
       r="34.930416" />
    <path
       id="rect1328"
       style="fill:none;fill-opacity:0.502041;stroke:#44aa00;stroke-width:4.0252;stroke-linejoin:bevel;paint-order:markers fill stroke"
       d="M -982.25771 1536.9599 L -1094.4615 1536.9599 L -1094.4615 1174.7675 L -1094.4615 1174.7675 L -829.0381 1174.7675 L -829.0381 1377.4634 "
       transform="scale(0.26458333)" />
    <path
       id="path1332"
       style="fill:none;fill-opacity:0.502041;stroke:#44aa00;stroke-width:1.065;stroke-linejoin:bevel;paint-order:markers fill stroke"
       d="m -210.53022,375.47816 v 42.20011 h -40.53935" />
    <rect
       style="fill:#ffff00;fill-opacity:0.502041;stroke:#44aa00;stroke-width:1.065;stroke-linejoin:bevel;paint-order:markers fill stroke"
       id="rect1335"
       width="70.226601"
       height="95.830048"
       x="-405.99271"
       y="448.40698" />
    <path
       style="fill:#ff00ff;fill-opacity:0.502041;stroke:#2a2aff;stroke-width:1.065;stroke-linejoin:bevel;paint-order:markers fill stroke"
       id="path1621"
       sodipodi:type="arc"
       sodipodi:cx="-53.181248"
       sodipodi:cy="473.33957"
       sodipodi:rx="37.306248"
       sodipodi:ry="37.306248"
       sodipodi:start="0"
       sodipodi:end="4.13082"
       sodipodi:open="true"
       sodipodi:arc-type="arc"
       d="M -15.875,473.33957 A 37.306248,37.306248 0 0 1 -45.994408,509.94702 37.306248,37.306248 0 0 1 -87.718486,487.44401 37.306248,37.306248 0 0 1 -73.6749,442.1664" />
  </g>
</svg>
