<?xml version="1.0" encoding="UTF-8" standalone="no"?>
<!-- Created with Inkscape (http://www.inkscape.org/) -->

<svg
   width="210mm"
   height="297mm"
   viewBox="0 0 210 297"
   version="1.1"
   id="svg5"
   inkscape:version="1.1.2 (b8e25be833, 2022-02-05)"
   sodipodi:docname="路径转化为对象.svg"
   xmlns:inkscape="http://www.inkscape.org/namespaces/inkscape"
   xmlns:sodipodi="http://sodipodi.sourceforge.net/DTD/sodipodi-0.dtd"
   xmlns="http://www.w3.org/2000/svg"
   xmlns:svg="http://www.w3.org/2000/svg">
  <sodipodi:namedview
     id="namedview7"
     pagecolor="#ffffff"
     bordercolor="#666666"
     borderopacity="1.0"
     inkscape:pageshadow="2"
     inkscape:pageopacity="0.0"
     inkscape:pagecheckerboard="0"
     inkscape:document-units="mm"
     showgrid="false"
     inkscape:zoom="8.1840269"
     inkscape:cx="256.47521"
     inkscape:cy="647.0531"
     inkscape:window-width="1920"
     inkscape:window-height="1001"
     inkscape:window-x="-9"
     inkscape:window-y="-9"
     inkscape:window-maximized="1"
     inkscape:current-layer="layer1" />
  <defs
     id="defs2" />
  <g
     inkscape:label="图层 1"
     inkscape:groupmode="layer"
     id="layer1">
    <path
       id="rect846"
       style="fill:#de8787;fill-opacity:0.502041;stroke:#ffffff;stroke-width:0.465;stroke-linejoin:bevel;paint-order:markers fill stroke"
       d="m 117.66013,92.172413 c 18.0492,-16.621201 73.51847,-3.657635 73.51847,-3.657635 v 59.253692 l -79.73645,-8.77833 c 0,0 -5.36265,-36.15333 6.21798,-46.817727 z"
       sodipodi:nodetypes="scccs" />
    <g
       aria-label="This"
       id="text2659"
       style="font-size:10.5833px;line-height:1.25;font-family:'Times New Roman';-inkscape-font-specification:'Times New Roman, Normal';stroke-width:0.265">
      <path
         d="m 61.353935,170.38801 0.07751,1.6433 h -0.19637 q -0.05684,-0.43408 -0.155028,-0.62011 -0.160197,-0.29972 -0.428913,-0.43925 -0.263549,-0.14469 -0.69763,-0.14469 h -0.987017 v 5.35366 q 0,0.64595 0.139526,0.80615 0.19637,0.21704 0.604613,0.21704 h 0.242878 v 0.1912 h -2.971385 v -0.1912 h 0.248046 q 0.444416,0 0.63045,-0.26872 0.113688,-0.16536 0.113688,-0.75447 v -5.35366 h -0.842323 q -0.490925,0 -0.69763,0.0723 -0.268716,0.0982 -0.459919,0.37724 -0.191202,0.27905 -0.227375,0.75447 h -0.19637 l 0.08268,-1.6433 z"
         id="path4978" />
      <path
         d="m 63.415818,170.04694 v 3.46231 c 0.382405,-0.4203 0.685572,-0.68902 0.909502,-0.80615 0.223931,-0.12057 0.447861,-0.18086 0.671792,-0.18086 0.268717,0 0.499537,0.0741 0.692462,0.22221 0.192925,0.14813 0.335896,0.38067 0.428913,0.69762 0.06546,0.22049 0.09819,0.62356 0.09819,1.20923 v 1.67431 c 0,0.29972 0.02412,0.5047 0.07235,0.61495 0.03445,0.0827 0.09302,0.14814 0.1757,0.19637 0.08268,0.0482 0.234266,0.0723 0.454751,0.0723 v 0.18604 h -2.325432 v -0.18604 h 0.10852 c 0.220485,0 0.373792,-0.0327 0.459919,-0.0982 0.08613,-0.0689 0.146416,-0.16881 0.180867,-0.29972 0.01033,-0.0551 -1.728745,-1.01743 -1.503974,-1.16467 l 1.519474,-0.9954 c 0.432265,-0.28317 -0.02756,-0.8561 -0.08268,-1.01802 -0.05167,-0.16192 -0.136078,-0.2825 -0.253214,-0.36174 -0.117133,-0.0827 -0.258381,-0.12402 -0.423745,-0.12402 -0.168809,0 0.01111,1.24097 -0.171476,1.33054 -0.18259,0.0896 -0.756975,-0.92574 -1.011911,-0.65358 v 2.50113 c 0,0.32384 0.01723,0.52538 0.05168,0.60461 0.03789,0.0792 0.105073,0.14642 0.201538,0.20154 0.09991,0.0517 0.270439,0.0775 0.511595,0.0775 v 0.18604 h -2.346103 v -0.18604 c 0.21015,0 0.375514,-0.0327 0.496092,-0.0982 0.0689,-0.0345 0.124023,-0.0999 0.165364,-0.19637 0.04134,-0.0965 0.06201,-0.29283 0.06201,-0.58911 v -4.28396 c 0,-0.54088 -0.01378,-0.87333 -0.04134,-0.99735 -0.02411,-0.12403 -0.06373,-0.20843 -0.118855,-0.25322 -0.05167,-0.0448 -0.122298,-0.0672 -0.211873,-0.0672 -0.07235,0 -0.18948,0.0276 -0.351399,0.0827 l -0.07235,-0.18087 1.41593,-0.57878 z"
         id="path4980"
         sodipodi:nodetypes="cccsscsscsccccsccssccsscscccccccsssccscccc" />
      <path
         d="m 68.521434,170.04694 q 0.21704,0 0.366901,0.15503 0.155029,0.14986 0.155029,0.3669 0,0.21704 -0.155029,0.37207 -0.149861,0.15503 -0.366901,0.15503 -0.217041,0 -0.372069,-0.15503 -0.155029,-0.15503 -0.155029,-0.37207 0,-0.21704 0.149861,-0.3669 0.155029,-0.15503 0.377237,-0.15503 z m 0.428913,2.4753 v 3.80337 q 0,0.44442 0.06201,0.59428 0.06718,0.14469 0.191202,0.21704 0.129191,0.0723 0.465087,0.0723 v 0.18604 h -2.299594 v -0.18604 q 0.346231,0 0.465086,-0.0672 0.118856,-0.0672 0.186035,-0.22221 0.07235,-0.15503 0.07235,-0.59428 v -1.82417 q 0,-0.76998 -0.04651,-0.99735 -0.03617,-0.16537 -0.113688,-0.22738 -0.07751,-0.0672 -0.211872,-0.0672 -0.144694,0 -0.351399,0.0775 l -0.07235,-0.18604 1.426265,-0.57877 z"
         id="path4982" />
      <path
         d="m 73.316991,172.52224 v 1.6123 h -0.170532 q -0.19637,-0.75964 -0.506427,-1.03353 -0.30489,-0.27388 -0.780312,-0.27388 -0.361734,0 -0.583942,0.1912 -0.222208,0.1912 -0.222208,0.42374 0,0.28939 0.165364,0.4961 0.160197,0.21187 0.651121,0.44958 l 0.754474,0.3669 q 1.049028,0.5116 1.049028,1.34875 0,0.64596 -0.490924,1.04386 -0.485757,0.39274 -1.09037,0.39274 -0.43408,0 -0.992184,-0.15503 -0.170532,-0.0517 -0.279052,-0.0517 -0.118855,0 -0.186034,0.13436 h -0.170532 v -1.68982 h 0.170532 q 0.144693,0.72347 0.552936,1.09037 0.408242,0.3669 0.91467,0.3669 0.356566,0 0.578774,-0.2067 0.227375,-0.21187 0.227375,-0.50643 0,-0.35657 -0.253213,-0.59944 -0.248046,-0.24288 -0.997352,-0.61495 -0.749306,-0.37207 -0.981849,-0.67179 -0.232544,-0.29456 -0.232544,-0.74414 0,-0.58394 0.397908,-0.97668 0.403075,-0.39274 1.038693,-0.39274 0.279051,0 0.676959,0.11885 0.263549,0.0775 0.351398,0.0775 0.08268,0 0.129191,-0.0362 0.04651,-0.0362 0.10852,-0.16019 z"
         id="path4984" />
    </g>
  </g>
</svg>
